{"glyphs":{"0":{"ha":850,"x_min":0,"x_max":0,"o":"m 765 488 b 422 1003 765 756 646 1003 b 85 481 206 1003 85 758 b 422 -22 88 224 201 -22 b 765 488 642 -22 765 222 z m 667 488 b 425 4 667 271 579 4 b 183 481 279 4 190 268 b 425 972 183 742 267 972 b 667 488 578 972 667 708 z "},"1":{"ha":376,"x_min":0,"x_max":0,"o":"m 104 0 l 263 0 b 238 124 243 38 238 65 l 238 901 b 249 1003 238 935 239 968 l 236 1008 b 96 851 189 938 113 865 l 96 838 b 131 714 126 804 131 772 l 131 124 b 104 0 131 61 125 38 z "},"2":{"ha":763,"x_min":0,"x_max":0,"o":"m 685 197 l 672 200 b 469 83 638 106 563 83 l 199 83 b 668 743 447 293 668 515 b 407 1006 668 918 544 1006 b 74 714 271 1006 122 918 b 172 550 110 714 157 640 l 183 550 b 401 982 160 831 289 982 b 558 719 485 982 558 901 b 46 0 558 488 321 228 l 422 0 b 594 -47 565 0 579 -4 b 685 197 621 14 667 122 z "},"3":{"ha":781,"x_min":0,"x_max":0,"o":"m 426 547 l 426 554 b 657 796 583 586 657 694 b 407 1006 657 904 574 1006 b 88 756 276 1006 126 936 b 186 592 125 756 171 679 l 197 592 b 401 982 175 846 283 982 b 553 800 490 982 553 907 b 332 547 553 678 468 582 l 332 539 b 604 231 486 526 604 393 b 422 19 604 100 535 19 b 138 399 263 19 146 175 l 124 396 b 58 176 129 240 119 206 b 386 -19 131 49 244 -19 b 710 258 603 -19 710 118 b 426 547 710 389 619 521 z "},"4":{"ha":731,"x_min":0,"x_max":0,"o":"m 650 394 l 564 394 l 564 1003 l 360 1003 l 360 996 b 474 808 472 996 474 993 l 474 394 l 104 394 b 325 815 263 590 325 704 b 43 1031 325 958 231 1031 l 42 1021 b 222 799 158 1019 222 940 b 43 358 222 657 158 500 l 474 358 l 474 14 b 400 -181 474 -39 460 -78 l 407 -183 b 564 0 539 13 528 0 l 564 358 l 583 358 b 679 342 625 358 656 354 l 688 346 z "},"5":{"ha":792,"x_min":0,"x_max":0,"o":"m 238 647 l 229 654 l 301 953 l 474 953 b 676 844 567 953 642 939 l 689 847 b 599 1050 671 922 625 989 b 426 1003 583 1007 569 1003 b 210 1010 350 1003 265 999 l 199 1003 b 154 594 221 951 203 818 l 167 583 b 326 617 222 606 276 617 b 604 300 486 617 604 503 b 413 19 604 125 531 19 b 128 399 261 19 136 186 l 114 396 b 49 176 119 239 110 206 b 376 -19 117 56 243 -19 b 713 306 571 -19 708 113 b 364 660 717 535 582 660 b 238 647 325 660 282 656 z "},"6":{"ha":763,"x_min":0,"x_max":0,"o":"m 231 468 b 376 521 276 504 328 521 b 611 257 521 521 611 392 b 417 15 611 140 539 15 b 185 406 282 15 185 179 b 519 1035 185 651 282 881 l 515 1044 b 78 357 225 907 78 635 b 390 -17 78 136 206 -17 b 697 332 585 -17 697 172 b 375 606 697 490 585 618 b 225 475 363 588 315 558 z "},"7":{"ha":736,"x_min":0,"x_max":0,"o":"m 119 1040 l 107 1038 b 53 806 107 999 72 882 l 65 803 b 254 953 114 924 161 953 l 539 953 b 114 8 471 660 301 275 l 128 0 b 646 910 363 269 542 599 b 700 1013 658 947 667 978 l 696 1019 b 556 1003 669 1011 649 1003 l 329 1003 b 119 1040 210 1003 133 1007 z "},"8":{"ha":825,"x_min":0,"x_max":0,"o":"m 413 -24 b 757 267 633 -24 757 119 b 515 550 757 382 681 500 b 692 779 628 589 693 667 b 414 1015 690 913 589 1015 b 135 779 238 1015 136 913 b 307 550 133 657 197 596 b 68 269 144 503 68 386 b 413 -24 68 122 190 -24 z m 596 779 b 404 563 596 636 499 563 b 228 776 313 563 224 632 b 415 992 232 919 325 992 b 596 779 507 992 596 921 z m 650 269 b 419 8 650 90 536 8 b 171 269 297 8 171 100 b 418 535 171 443 296 535 b 650 269 535 535 650 450 z "},"9":{"ha":749,"x_min":0,"x_max":0,"o":"m 479 553 b 331 494 428 513 376 494 b 149 739 226 494 149 590 b 329 972 149 857 208 972 b 575 621 444 972 575 857 b 121 -14 575 375 386 140 l 125 -24 b 676 663 443 114 676 385 b 375 1003 676 894 526 1003 b 65 679 218 1003 65 899 b 335 404 65 535 168 404 b 485 546 347 422 394 463 z "}," ":{"ha":333,"x_min":0,"x_max":0,"o":""},"A":{"ha":981,"x_min":0,"x_max":0,"o":"m 796 0 l 933 0 l 500 935 b 475 1003 490 956 479 981 l 186 1003 l 186 996 b 471 781 386 996 393 956 b 74 135 246 656 74 400 b 93 -17 74 83 81 33 l 558 593 l 781 111 b 796 0 797 75 810 31 z m 482 756 l 547 615 l 200 164 b 189 267 192 199 189 232 b 482 756 189 458 306 644 z "},"Á":{"ha":981,"x_min":0,"x_max":0,"o":"m 201 1071 l 206 1064 l 499 1165 l 460 1240 z m 796 0 l 933 0 l 500 935 b 475 1003 490 956 479 981 l 186 1003 l 186 996 b 471 781 386 996 393 956 b 74 135 246 656 74 400 b 93 -17 74 83 81 33 l 558 593 l 781 111 b 796 0 797 75 810 31 z m 482 756 l 547 615 l 200 164 b 189 267 192 199 189 232 b 482 756 189 458 306 644 z "},"Ă":{"ha":981,"x_min":0,"x_max":0,"o":"m 518 1163 l 494 1174 b 383 1096 461 1119 421 1096 b 271 1231 331 1096 283 1144 l 213 1189 b 372 1076 240 1111 308 1076 b 518 1163 425 1076 482 1104 z m 796 0 l 933 0 l 500 935 b 475 1003 490 956 479 981 l 186 1003 l 186 996 b 471 781 386 996 393 956 b 74 135 246 656 74 400 b 93 -17 74 83 81 33 l 558 593 l 781 111 b 796 0 797 75 810 31 z m 482 756 l 547 615 l 200 164 b 189 267 192 199 189 232 b 482 756 189 458 306 644 z "},"Â":{"ha":981,"x_min":0,"x_max":0,"o":"m 590 1078 l 397 1278 l 397 1276 l 396 1278 l 201 1078 l 206 1068 l 397 1178 l 586 1068 z m 796 0 l 933 0 l 500 935 b 475 1003 490 956 479 981 l 186 1003 l 186 996 b 471 781 386 996 393 956 b 74 135 246 656 74 400 b 93 -17 74 83 81 33 l 558 593 l 781 111 b 796 0 797 75 810 31 z m 482 756 l 547 615 l 200 164 b 189 267 192 199 189 232 b 482 756 189 458 306 644 z "},"Ä":{"ha":981,"x_min":0,"x_max":0,"o":"m 460 1121 b 460 1190 479 1139 479 1172 b 392 1190 440 1210 411 1208 b 376 1156 383 1182 376 1168 b 392 1121 376 1143 383 1129 b 460 1121 411 1103 440 1101 z m 294 1121 b 294 1190 314 1139 314 1172 b 226 1190 276 1208 244 1208 b 213 1156 217 1182 213 1168 b 226 1121 213 1143 217 1129 b 294 1121 244 1103 276 1103 z m 796 0 l 933 0 l 500 935 b 475 1003 490 956 479 981 l 186 1003 l 186 996 b 471 781 386 996 393 956 b 74 135 246 656 74 400 b 93 -17 74 83 81 33 l 558 593 l 781 111 b 796 0 797 75 810 31 z m 482 756 l 547 615 l 200 164 b 189 267 192 199 189 232 b 482 756 189 458 306 644 z "},"À":{"ha":981,"x_min":0,"x_max":0,"o":"m 442 1093 l 182 1261 l 143 1186 l 436 1085 z m 796 0 l 933 0 l 500 935 b 475 1003 490 956 479 981 l 186 1003 l 186 996 b 471 781 386 996 393 956 b 74 135 246 656 74 400 b 93 -17 74 83 81 33 l 558 593 l 781 111 b 796 0 797 75 810 31 z m 482 756 l 547 615 l 200 164 b 189 267 192 199 189 232 b 482 756 189 458 306 644 z "},"Ā":{"ha":981,"x_min":0,"x_max":0,"o":"m 165 1153 l 131 1096 l 138 1088 l 206 1101 l 533 1101 l 597 1088 l 604 1096 l 569 1153 z m 796 0 l 933 0 l 500 935 b 475 1003 490 956 479 981 l 186 1003 l 186 996 b 471 781 386 996 393 956 b 74 135 246 656 74 400 b 93 -17 74 83 81 33 l 558 593 l 781 111 b 796 0 797 75 810 31 z m 482 756 l 547 615 l 200 164 b 189 267 192 199 189 232 b 482 756 189 458 306 644 z "},"Ą":{"ha":981,"x_min":0,"x_max":0,"o":"m 985 -161 b 836 -136 922 -192 868 -178 b 811 0 807 -104 797 -54 l 933 0 l 500 935 b 475 1003 490 956 479 981 l 186 1003 l 186 996 b 471 781 386 996 393 956 b 74 135 246 656 74 400 b 93 -17 74 83 81 33 l 558 593 l 781 111 b 800 11 796 79 807 40 b 789 -207 746 -82 750 -165 b 986 -171 828 -251 904 -250 z m 200 164 b 189 267 192 199 189 232 b 482 756 189 458 306 644 l 547 615 z "},"Å":{"ha":981,"x_min":0,"x_max":0,"o":"m 346 1014 l 383 1014 b 368 1064 372 1031 368 1049 b 444 1140 368 1107 400 1140 b 517 1060 493 1140 517 1099 b 492 1003 517 1038 510 1017 b 506 967 493 990 499 976 b 549 1053 536 992 549 1022 b 444 1157 549 1106 510 1157 b 336 1060 385 1157 336 1117 b 346 1014 336 1044 340 1031 z m 796 0 l 933 0 l 500 935 b 475 1003 490 956 479 981 l 186 1003 l 186 996 b 471 781 386 996 393 956 b 74 135 246 656 74 400 b 93 -17 74 83 81 33 l 558 593 l 781 111 b 796 0 797 75 810 31 z m 482 756 l 547 615 l 200 164 b 189 267 192 199 189 232 b 482 756 189 458 306 644 z "},"Ã":{"ha":981,"x_min":0,"x_max":0,"o":"m 582 1175 l 574 1175 b 338 1169 535 1115 463 1135 b 161 1090 258 1192 203 1167 l 169 1090 b 447 1090 238 1174 329 1078 b 582 1175 514 1097 558 1121 z m 796 0 l 933 0 l 500 935 b 475 1003 490 956 479 981 l 186 1003 l 186 996 b 471 781 386 996 393 956 b 74 135 246 656 74 400 b 93 -17 74 83 81 33 l 558 593 l 781 111 b 796 0 797 75 810 31 z m 482 756 l 547 615 l 200 164 b 189 267 192 199 189 232 b 482 756 189 458 306 644 z "},"Æ":{"ha":1472,"x_min":0,"x_max":0,"o":"m 1400 226 b 968 42 1318 64 1185 42 b 910 100 921 42 910 54 l 910 579 l 1110 579 b 1321 507 1219 579 1275 567 l 1321 674 b 1110 601 1275 629 1219 601 l 910 601 l 910 978 l 1053 978 b 1329 815 1203 978 1247 958 l 1339 819 l 1285 1003 l 186 1003 l 186 996 b 471 781 386 996 393 956 b 74 135 246 656 74 400 b 93 -17 74 83 81 33 l 558 593 l 781 111 b 796 0 797 75 810 31 l 1343 0 l 1411 221 z m 500 935 b 547 989 481 978 485 989 l 696 989 b 813 801 817 989 813 968 l 813 261 z m 200 164 b 189 267 192 199 189 232 b 482 756 189 458 306 644 l 547 615 z "},"B":{"ha":875,"x_min":0,"x_max":0,"o":"m 300 1 b 808 351 588 18 808 136 b 425 685 808 533 653 651 b 629 906 514 713 629 807 b 472 1011 629 972 571 1011 b 246 933 393 1011 313 986 l 246 1003 l 42 1003 l 42 996 b 149 831 149 996 149 981 l 149 0 b 300 1 210 0 276 0 z m 289 672 l 289 664 b 696 351 513 664 696 565 b 246 25 696 128 497 32 l 246 914 b 399 969 293 951 349 969 b 525 868 478 969 525 932 b 289 672 525 789 451 704 z "},"C":{"ha":1061,"x_min":0,"x_max":0,"o":"m 988 256 l 979 261 b 619 3 892 81 760 11 b 189 499 390 -11 203 172 b 621 997 176 806 371 997 b 942 764 792 997 899 904 l 954 765 l 938 958 b 658 1021 842 1000 760 1021 b 83 463 335 1021 68 819 b 621 -26 97 139 329 -40 b 935 67 732 -21 836 1 z "},"Ć":{"ha":1061,"x_min":0,"x_max":0,"o":"m 485 1071 l 489 1064 l 782 1165 l 743 1240 z m 988 256 l 979 261 b 619 3 892 81 760 11 b 189 499 390 -11 203 172 b 621 997 176 806 371 997 b 942 764 792 997 899 904 l 954 765 l 938 958 b 658 1021 842 1000 760 1021 b 83 463 335 1021 68 819 b 621 -26 97 139 329 -40 b 935 67 732 -21 836 1 z "},"Č":{"ha":1061,"x_min":0,"x_max":0,"o":"m 786 1278 l 782 1288 l 593 1178 l 401 1288 l 397 1278 l 592 1078 l 593 1079 l 593 1078 z m 988 256 l 979 261 b 619 3 892 81 760 11 b 189 499 390 -11 203 172 b 621 997 176 806 371 997 b 942 764 792 997 899 904 l 954 765 l 938 958 b 658 1021 842 1000 760 1021 b 83 463 335 1021 68 819 b 621 -26 97 139 329 -40 b 935 67 732 -21 836 1 z "},"Ç":{"ha":1061,"x_min":0,"x_max":0,"o":"m 554 -26 b 621 -26 576 -28 599 -28 b 935 67 732 -21 836 1 l 988 256 l 979 261 b 619 3 892 81 760 11 b 189 499 390 -11 203 172 b 621 997 176 806 371 997 b 942 764 792 997 899 904 l 954 765 l 938 958 b 658 1021 842 1000 760 1021 b 83 463 335 1021 68 819 b 503 -21 96 183 269 13 l 474 -142 l 486 -146 b 561 -106 517 -115 542 -106 b 615 -154 597 -106 615 -129 b 531 -224 615 -187 588 -224 b 457 -207 508 -224 485 -219 l 453 -215 b 556 -242 492 -233 526 -242 b 685 -132 639 -242 685 -182 b 607 -64 685 -96 660 -64 b 490 -126 572 -64 531 -81 l 490 -124 z "},"Ċ":{"ha":1061,"x_min":0,"x_max":0,"o":"m 581 1088 b 644 1153 615 1088 644 1117 b 581 1217 644 1188 615 1217 b 515 1153 544 1217 515 1188 b 581 1088 515 1117 544 1088 z m 988 256 l 979 261 b 619 3 892 81 760 11 b 189 499 390 -11 203 172 b 621 997 176 806 371 997 b 942 764 792 997 899 904 l 954 765 l 938 958 b 658 1021 842 1000 760 1021 b 83 463 335 1021 68 819 b 621 -26 97 139 329 -40 b 935 67 732 -21 836 1 z "},"D":{"ha":1046,"x_min":0,"x_max":0,"o":"m 132 0 b 368 3 233 0 285 0 b 967 546 768 18 967 264 b 410 1008 967 790 781 1015 b 42 1003 311 1007 183 1003 l 42 996 b 176 788 176 996 176 953 l 176 183 b 132 0 176 35 169 31 z m 274 971 b 383 981 314 976 349 981 b 850 549 696 981 850 774 b 343 33 850 285 679 53 b 274 89 296 31 274 43 z "},"Ð":{"ha":1114,"x_min":0,"x_max":0,"o":"m 478 1008 b 110 1003 379 1007 251 1003 l 110 996 b 244 788 244 996 244 953 l 244 571 b 226 572 239 572 232 572 b 49 467 158 572 92 540 l 58 460 b 157 517 88 501 122 517 b 244 492 186 517 217 507 l 244 183 b 200 0 244 35 238 31 b 436 3 301 0 353 0 b 1035 546 836 18 1035 264 b 478 1008 1035 790 849 1015 z m 411 33 b 342 89 364 31 342 43 l 342 449 b 375 446 353 447 364 446 b 560 558 461 446 533 508 l 551 567 b 449 501 518 518 482 501 b 350 536 414 501 381 518 l 342 540 l 342 967 b 451 976 382 972 417 976 b 918 549 764 976 918 774 b 411 33 918 285 747 53 z "},"Ď":{"ha":1046,"x_min":0,"x_max":0,"o":"m 693 1278 l 689 1288 l 500 1178 l 308 1288 l 304 1278 l 499 1078 l 500 1079 l 500 1078 z m 132 0 b 368 3 233 0 285 0 b 967 546 768 18 967 264 b 410 1008 967 790 781 1015 b 42 1003 311 1007 183 1003 l 42 996 b 176 788 176 996 176 953 l 176 183 b 132 0 176 35 169 31 z m 274 971 b 383 981 314 976 349 981 b 850 549 696 981 850 774 b 343 33 850 285 679 53 b 274 89 296 31 274 43 z "},"Đ":{"ha":1114,"x_min":0,"x_max":0,"o":"m 478 1008 b 110 1003 379 1007 251 1003 l 110 996 b 244 788 244 996 244 953 l 244 571 b 226 572 239 572 232 572 b 49 467 158 572 92 540 l 58 460 b 157 517 88 501 122 517 b 244 492 186 517 217 507 l 244 183 b 200 0 244 35 238 31 b 436 3 301 0 353 0 b 1035 546 836 18 1035 264 b 478 1008 1035 790 849 1015 z m 411 33 b 342 89 364 31 342 43 l 342 449 b 375 446 353 447 364 446 b 560 558 461 446 533 508 l 551 567 b 449 501 518 518 482 501 b 350 536 414 501 381 518 l 342 540 l 342 967 b 451 976 382 972 417 976 b 918 549 764 976 918 774 b 411 33 918 285 747 53 z "},"E":{"ha":819,"x_min":0,"x_max":0,"o":"m 746 226 b 315 36 664 64 532 36 b 256 100 268 35 256 50 l 256 579 l 456 579 b 667 507 565 579 621 567 l 667 674 b 456 601 621 629 565 601 l 256 601 l 256 978 l 399 978 b 675 815 549 978 593 958 l 685 819 l 631 1003 l 42 1003 l 42 996 b 158 801 163 996 158 968 l 158 92 b 144 0 158 58 153 28 l 689 0 l 757 221 z "},"É":{"ha":819,"x_min":0,"x_max":0,"o":"m 271 1071 l 275 1064 l 568 1165 l 529 1240 z m 746 226 b 315 36 664 64 532 36 b 256 100 268 35 256 50 l 256 579 l 456 579 b 667 507 565 579 621 567 l 667 674 b 456 601 621 629 565 601 l 256 601 l 256 978 l 399 978 b 675 815 549 978 593 958 l 685 819 l 631 1003 l 42 1003 l 42 996 b 158 801 163 996 158 968 l 158 92 b 144 0 158 58 153 28 l 689 0 l 757 221 z "},"Ě":{"ha":833,"x_min":0,"x_max":0,"o":"m 599 1278 l 594 1288 l 406 1178 l 214 1288 l 210 1278 l 404 1078 l 406 1079 l 406 1078 z m 746 226 b 315 36 664 64 532 36 b 256 100 268 35 256 50 l 256 579 l 456 579 b 667 507 565 579 621 567 l 667 674 b 456 601 621 629 565 601 l 256 601 l 256 978 l 399 978 b 675 815 549 978 593 958 l 685 819 l 631 1003 l 42 1003 l 42 996 b 158 801 163 996 158 968 l 158 92 b 144 0 158 58 153 28 l 689 0 l 757 221 z "},"Ê":{"ha":819,"x_min":0,"x_max":0,"o":"m 581 1118 l 388 1318 l 388 1317 l 386 1318 l 192 1118 l 196 1108 l 388 1218 l 576 1108 z m 746 226 b 315 36 664 64 532 36 b 256 100 268 35 256 50 l 256 579 l 456 579 b 667 507 565 579 621 567 l 667 674 b 456 601 621 629 565 601 l 256 601 l 256 978 l 399 978 b 675 815 549 978 593 958 l 685 819 l 631 1003 l 42 1003 l 42 996 b 158 801 163 996 158 968 l 158 92 b 144 0 158 58 153 28 l 689 0 l 757 221 z "},"Ë":{"ha":819,"x_min":0,"x_max":0,"o":"m 513 1121 b 513 1190 532 1139 532 1172 b 444 1190 493 1210 464 1208 b 429 1156 436 1182 429 1168 b 444 1121 429 1143 436 1129 b 513 1121 464 1103 493 1101 z m 347 1121 b 347 1190 367 1139 367 1172 b 279 1190 329 1208 297 1208 b 265 1156 269 1182 265 1168 b 279 1121 265 1143 269 1129 b 347 1121 297 1103 329 1103 z m 746 226 b 315 36 664 64 532 36 b 256 100 268 35 256 50 l 256 579 l 456 579 b 667 507 565 579 621 567 l 667 674 b 456 601 621 629 565 601 l 256 601 l 256 978 l 399 978 b 675 815 549 978 593 958 l 685 819 l 631 1003 l 42 1003 l 42 996 b 158 801 163 996 158 968 l 158 92 b 144 0 158 58 153 28 l 689 0 l 757 221 z "},"Ė":{"ha":819,"x_min":0,"x_max":0,"o":"m 390 1071 b 454 1136 425 1071 454 1100 b 390 1200 454 1171 425 1200 b 325 1136 354 1200 325 1171 b 390 1071 325 1100 354 1071 z m 746 226 b 315 36 664 64 532 36 b 256 100 268 35 256 50 l 256 579 l 456 579 b 667 507 565 579 621 567 l 667 674 b 456 601 621 629 565 601 l 256 601 l 256 978 l 399 978 b 675 815 549 978 593 958 l 685 819 l 631 1003 l 42 1003 l 42 996 b 158 801 163 996 158 968 l 158 92 b 144 0 158 58 153 28 l 689 0 l 757 221 z "},"È":{"ha":819,"x_min":0,"x_max":0,"o":"m 583 1093 l 324 1261 l 285 1186 l 578 1085 z m 746 226 b 315 36 664 64 532 36 b 256 100 268 35 256 50 l 256 579 l 456 579 b 667 507 565 579 621 567 l 667 674 b 456 601 621 629 565 601 l 256 601 l 256 978 l 399 978 b 675 815 549 978 593 958 l 685 819 l 631 1003 l 42 1003 l 42 996 b 158 801 163 996 158 968 l 158 92 b 144 0 158 58 153 28 l 689 0 l 757 221 z "},"Ē":{"ha":833,"x_min":0,"x_max":0,"o":"m 189 1153 l 154 1096 l 161 1088 l 229 1101 l 557 1101 l 621 1088 l 628 1096 l 593 1153 z m 746 226 b 315 36 664 64 532 36 b 256 100 268 35 256 50 l 256 579 l 456 579 b 667 507 565 579 621 567 l 667 674 b 456 601 621 629 565 601 l 256 601 l 256 978 l 399 978 b 675 815 549 978 593 958 l 685 819 l 631 1003 l 42 1003 l 42 996 b 158 801 163 996 158 968 l 158 92 b 144 0 158 58 153 28 l 689 0 l 757 221 z "},"Ę":{"ha":819,"x_min":0,"x_max":0,"o":"m 888 -136 b 736 -139 832 -178 775 -172 b 692 10 699 -108 679 -53 l 757 221 l 746 226 b 315 36 664 64 532 36 b 256 100 268 35 256 50 l 256 579 l 456 579 b 667 507 565 579 621 567 l 667 674 b 456 601 621 629 565 601 l 256 601 l 256 978 l 399 978 b 675 815 549 978 593 958 l 685 819 l 631 1003 l 42 1003 l 42 996 b 158 801 163 996 158 968 l 158 92 b 144 0 158 58 153 28 l 675 0 b 703 -215 639 -100 657 -181 b 892 -146 749 -253 822 -239 z "},"F":{"ha":761,"x_min":0,"x_max":0,"o":"m 99 -183 b 256 0 142 -119 196 0 l 256 579 l 456 579 b 667 507 565 579 621 567 l 667 674 b 456 601 621 629 565 601 l 256 601 l 256 978 l 399 978 b 675 815 549 978 600 947 l 685 819 l 631 1003 l 42 1003 l 42 996 b 158 801 163 996 158 968 l 158 14 b 92 -181 158 -43 147 -85 z "},"G":{"ha":1090,"x_min":0,"x_max":0,"o":"m 747 617 l 747 608 b 885 457 875 608 885 593 l 885 178 b 596 18 885 111 783 18 l 579 18 b 197 463 371 19 197 178 b 603 996 197 747 344 996 b 926 764 744 996 881 914 l 939 765 l 922 958 b 624 1021 829 999 726 1021 b 83 483 307 1021 83 810 b 578 -24 83 182 297 -24 l 579 -24 b 981 139 771 -24 875 43 l 981 617 z "},"Ğ":{"ha":1090,"x_min":0,"x_max":0,"o":"m 710 1174 l 686 1185 b 575 1107 653 1131 613 1107 b 463 1242 522 1107 475 1156 l 404 1200 b 564 1088 432 1122 500 1088 b 710 1174 617 1088 674 1115 z m 747 617 l 747 608 b 885 457 875 608 885 593 l 885 178 b 596 18 885 111 783 18 l 579 18 b 197 463 371 19 197 178 b 603 996 197 747 344 996 b 926 764 744 996 881 914 l 939 765 l 922 958 b 624 1021 829 999 726 1021 b 83 483 307 1021 83 810 b 578 -24 83 182 297 -24 l 579 -24 b 981 139 771 -24 875 43 l 981 617 z "},"Ģ":{"ha":1090,"x_min":0,"x_max":0,"o":"m 981 617 l 747 617 l 747 608 b 885 457 875 608 885 593 l 885 178 b 596 18 885 111 783 18 l 579 18 b 197 463 371 19 197 178 b 603 996 197 747 344 996 b 926 764 744 996 881 914 l 939 765 l 922 958 b 624 1021 829 999 726 1021 b 83 483 307 1021 83 810 b 513 -19 83 206 264 10 b 572 -132 551 -24 572 -75 b 522 -274 572 -183 556 -240 l 529 -281 b 657 -76 604 -240 657 -150 b 644 -21 657 -57 653 -36 b 981 139 796 -7 888 54 z "},"Ġ":{"ha":1090,"x_min":0,"x_max":0,"o":"m 578 1093 b 642 1158 613 1093 642 1122 b 578 1222 642 1193 613 1222 b 513 1158 542 1222 513 1193 b 578 1093 513 1122 542 1093 z m 747 617 l 747 608 b 885 457 875 608 885 593 l 885 178 b 596 18 885 111 783 18 l 579 18 b 197 463 371 19 197 178 b 603 996 197 747 344 996 b 926 764 744 996 881 914 l 939 765 l 922 958 b 624 1021 829 999 726 1021 b 83 483 307 1021 83 810 b 578 -24 83 182 297 -24 l 579 -24 b 981 139 771 -24 875 43 l 981 617 z "},"H":{"ha":1043,"x_min":0,"x_max":0,"o":"m 778 0 l 922 0 b 900 124 904 38 900 64 l 900 1003 l 690 1003 l 690 996 b 804 808 818 996 804 967 l 804 611 l 253 611 l 253 1003 l 42 1003 l 42 996 b 156 808 169 996 156 967 l 156 124 b 129 0 156 61 150 38 l 275 0 b 253 124 257 38 253 64 l 253 578 l 804 578 l 804 124 b 778 0 804 61 799 38 z "},"Ħ":{"ha":1069,"x_min":0,"x_max":0,"o":"m 911 782 l 917 782 b 1011 761 961 782 982 778 l 1021 768 l 986 819 l 911 819 l 911 1003 l 707 1003 l 707 996 b 821 819 832 996 821 968 l 269 819 l 269 1003 l 65 1003 l 65 996 b 179 819 190 996 179 968 l 88 819 l 53 768 l 63 761 b 157 782 92 778 113 782 l 179 782 l 179 124 b 153 0 179 61 174 38 l 292 0 b 269 124 274 38 269 64 l 269 576 l 821 576 l 821 124 b 794 0 821 61 815 38 l 933 0 b 911 124 915 38 911 64 z m 821 614 l 269 614 l 269 782 l 821 782 z "},"I":{"ha":396,"x_min":0,"x_max":0,"o":"m 129 0 l 275 0 b 253 124 257 38 253 64 l 253 1003 l 42 1003 l 42 996 b 156 808 157 992 156 967 l 156 124 b 129 0 156 61 150 38 z "},"Í":{"ha":396,"x_min":0,"x_max":0,"o":"m 56 1071 l 60 1064 l 353 1165 l 314 1240 z m 129 0 l 275 0 b 253 124 257 38 253 64 l 253 1003 l 42 1003 l 42 996 b 156 808 157 992 156 967 l 156 124 b 129 0 156 61 150 38 z "},"Î":{"ha":396,"x_min":0,"x_max":0,"o":"m 393 1118 l 200 1318 l 200 1317 l 199 1318 l 4 1118 l 8 1108 l 200 1218 l 389 1108 z m 129 0 l 275 0 b 253 124 257 38 253 64 l 253 1003 l 42 1003 l 42 996 b 156 808 157 992 156 967 l 156 124 b 129 0 156 61 150 38 z "},"Ï":{"ha":396,"x_min":0,"x_max":0,"o":"m 297 1121 b 297 1190 317 1139 317 1172 b 229 1190 278 1210 249 1208 b 214 1156 221 1182 214 1168 b 229 1121 214 1143 221 1129 b 297 1121 249 1103 278 1101 z m 132 1121 b 132 1190 151 1139 151 1172 b 64 1190 114 1208 82 1208 b 50 1156 54 1182 50 1168 b 64 1121 50 1143 54 1129 b 132 1121 82 1103 114 1103 z m 129 0 l 275 0 b 253 124 257 38 253 64 l 253 1003 l 42 1003 l 42 996 b 156 808 157 992 156 967 l 156 124 b 129 0 156 61 150 38 z "},"İ":{"ha":396,"x_min":0,"x_max":0,"o":"m 183 1107 b 247 1172 218 1107 247 1136 b 183 1236 247 1207 218 1236 b 118 1172 147 1236 118 1207 b 183 1107 118 1136 147 1107 z m 129 0 l 275 0 b 253 124 257 38 253 64 l 253 1003 l 42 1003 l 42 996 b 156 808 157 992 156 967 l 156 124 b 129 0 156 61 150 38 z "},"Ì":{"ha":396,"x_min":0,"x_max":0,"o":"m 368 1093 l 108 1261 l 69 1186 l 363 1085 z m 129 0 l 275 0 b 253 124 257 38 253 64 l 253 1003 l 42 1003 l 42 996 b 156 808 157 992 156 967 l 156 124 b 129 0 156 61 150 38 z "},"Ī":{"ha":393,"x_min":0,"x_max":0,"o":"m 8 1175 l -21 1118 l -15 1110 l 44 1124 l 332 1124 l 388 1110 l 393 1118 l 363 1175 z m 129 0 l 275 0 b 253 124 257 38 253 64 l 253 1003 l 42 1003 l 42 996 b 156 808 157 992 156 967 l 156 124 b 129 0 156 61 150 38 z "},"Į":{"ha":396,"x_min":0,"x_max":0,"o":"m 126 -165 b 142 0 100 -122 103 -58 l 275 0 b 253 124 257 38 253 64 l 253 1003 l 42 1003 l 42 996 b 156 808 157 992 156 967 l 156 124 b 131 3 156 63 150 39 b 68 -226 50 -85 36 -175 b 269 -225 99 -276 174 -289 l 269 -215 b 126 -165 203 -235 151 -211 z "},"J":{"ha":392,"x_min":0,"x_max":0,"o":"m 43 1003 l 43 996 b 157 808 157 989 157 967 l 157 203 b -62 -224 157 -31 129 -136 l -57 -235 b 254 203 97 -165 254 -87 l 254 1003 z "},"K":{"ha":875,"x_min":0,"x_max":0,"o":"m 714 318 b 321 551 660 453 585 571 b 611 897 482 744 524 794 b 808 996 676 974 708 992 l 808 1003 l 611 1003 b 253 568 585 954 422 768 l 253 1003 l 42 1003 l 42 996 b 156 808 169 996 156 967 l 156 124 b 129 0 156 61 150 38 l 275 0 b 253 124 257 38 253 64 l 253 522 b 342 529 283 526 319 529 b 657 192 510 529 585 393 b 967 -176 718 21 760 -81 l 969 -167 b 714 318 807 -107 788 133 z "},"Ķ":{"ha":868,"x_min":0,"x_max":0,"o":"m 707 307 b 342 576 653 442 582 567 b 614 899 461 721 528 794 b 811 996 676 975 711 992 l 811 1003 l 614 1003 b 246 568 485 842 419 768 l 246 1003 l 42 1003 l 42 996 b 156 808 169 996 156 967 l 156 124 b 168 -118 156 39 168 -78 b 121 -240 168 -201 150 -211 l 128 -247 b 246 -36 203 -207 246 -110 l 246 522 b 331 531 272 528 308 531 b 650 192 499 531 578 393 b 960 -176 711 21 753 -81 l 963 -167 b 707 307 800 -107 781 122 z "},"L":{"ha":822,"x_min":0,"x_max":0,"o":"m 765 221 l 754 226 b 264 28 667 68 599 31 l 264 1003 l 42 1003 l 42 996 b 167 801 163 996 167 968 l 167 146 b 147 0 167 99 164 39 l 264 0 l 703 0 z "},"Ĺ":{"ha":822,"x_min":0,"x_max":0,"o":"m 125 1071 l 129 1064 l 422 1165 l 383 1240 z m 765 221 l 754 226 b 264 28 667 68 599 31 l 264 1003 l 42 1003 l 42 996 b 167 801 163 996 167 968 l 167 146 b 147 0 167 99 164 39 l 264 0 l 703 0 z "},"Ľ":{"ha":833,"x_min":0,"x_max":0,"o":"m 557 1051 l 465 1108 l 458 1108 l 392 1003 l 396 996 b 456 933 438 982 456 958 b 367 822 456 899 422 858 l 379 806 b 521 971 443 844 475 882 l 558 1044 z m 765 221 l 754 226 b 264 28 667 68 599 31 l 264 1003 l 42 1003 l 42 996 b 167 801 163 996 167 968 l 167 146 b 147 0 167 99 164 39 l 264 0 l 703 0 z "},"Ļ":{"ha":822,"x_min":0,"x_max":0,"o":"m 765 221 l 754 226 b 264 42 667 68 599 44 l 264 1003 l 42 1003 l 42 996 b 167 801 163 996 167 968 l 167 146 b 147 0 167 99 164 39 l 338 0 b 390 -100 374 0 390 -46 b 343 -243 390 -153 375 -211 l 350 -250 b 478 -46 425 -210 478 -119 b 508 0 478 -29 481 0 l 703 0 z "},"Ł":{"ha":904,"x_min":0,"x_max":0,"o":"m 836 226 b 346 28 749 68 681 31 l 346 457 b 375 454 356 454 365 454 b 560 567 461 454 533 517 l 551 575 b 449 510 518 526 482 510 b 350 544 414 510 381 526 l 346 547 l 346 1003 l 124 1003 l 124 996 b 249 801 244 996 249 968 l 249 579 b 226 581 242 581 233 581 b 49 475 158 581 92 549 l 58 468 b 157 525 88 510 122 525 b 249 497 188 525 219 514 l 249 146 b 229 0 249 99 246 39 l 346 0 l 785 0 l 847 221 z "},"M":{"ha":1282,"x_min":0,"x_max":0,"o":"m 1225 0 b 1164 153 1201 36 1176 76 l 1040 892 b 1206 996 1024 994 1108 996 l 1206 1003 l 990 1003 l 651 168 l 313 1003 l 51 1003 l 51 996 b 228 925 149 996 192 988 l 129 153 b 76 0 119 75 100 36 l 192 0 b 165 153 163 44 154 75 l 261 867 l 617 -14 l 951 819 l 1067 150 b 1053 0 1081 75 1072 50 z "},"N":{"ha":1151,"x_min":0,"x_max":0,"o":"m 1013 -36 l 1013 1003 l 840 1003 l 840 996 b 979 819 951 996 979 974 l 979 158 l 274 1003 l 42 1003 l 42 996 b 217 917 139 996 164 979 l 217 153 b 178 0 217 75 201 36 l 293 0 b 253 153 264 44 253 75 l 253 874 z "},"Ń":{"ha":1151,"x_min":0,"x_max":0,"o":"m 438 1071 l 442 1064 l 735 1165 l 696 1240 z m 1013 -36 l 1013 1003 l 840 1003 l 840 996 b 979 819 951 996 979 974 l 979 158 l 274 1003 l 42 1003 l 42 996 b 217 917 139 996 164 979 l 217 153 b 178 0 217 75 201 36 l 293 0 b 253 153 264 44 253 75 l 253 874 z "},"Ň":{"ha":1151,"x_min":0,"x_max":0,"o":"m 899 1278 l 894 1288 l 706 1178 l 514 1288 l 510 1278 l 704 1078 l 706 1079 l 706 1078 z m 1096 -36 l 1096 1003 l 924 1003 l 924 996 b 1063 819 1035 996 1063 974 l 1063 158 l 357 1003 l 125 1003 l 125 996 b 300 917 222 996 247 979 l 300 153 b 261 0 300 75 285 36 l 376 0 b 336 153 347 44 336 75 l 336 874 z "},"Ņ":{"ha":1156,"x_min":0,"x_max":0,"o":"m 1096 1003 l 924 1003 l 924 996 b 1063 819 1035 996 1063 974 l 1063 158 l 357 1003 l 125 1003 l 125 996 b 300 917 222 996 247 979 l 300 153 b 261 0 300 75 285 36 l 376 0 b 336 153 347 44 336 75 l 336 874 l 1068 -1 b 1054 -60 1068 -24 1064 -43 b 950 -156 1032 -99 976 -111 b 968 -233 933 -185 939 -212 b 1078 -193 1011 -265 1054 -235 l 1071 -7 l 1096 -36 z "},"Ŋ":{"ha":1151,"x_min":0,"x_max":0,"o":"m 924 1003 l 924 996 b 1063 819 1035 996 1063 974 l 1063 158 l 357 1003 l 125 1003 l 125 996 b 300 917 222 996 247 979 l 300 153 b 261 0 300 75 285 36 l 376 0 b 336 153 347 44 336 75 l 336 874 l 1010 68 b 1025 14 1021 51 1025 33 b 819 -308 1025 -86 899 -217 l 829 -318 b 1096 -36 957 -187 1047 -72 l 1096 1003 z "},"Ñ":{"ha":1151,"x_min":0,"x_max":0,"o":"m 800 1175 l 792 1175 b 556 1169 753 1115 681 1135 b 379 1090 476 1192 421 1167 l 388 1090 b 665 1090 456 1174 547 1078 b 800 1175 732 1097 776 1121 z m 1013 -36 l 1013 1003 l 840 1003 l 840 996 b 979 819 951 996 979 974 l 979 158 l 274 1003 l 42 1003 l 42 996 b 217 917 139 996 164 979 l 217 153 b 178 0 217 75 201 36 l 293 0 b 253 153 264 44 253 75 l 253 874 z "},"O":{"ha":1211,"x_min":0,"x_max":0,"o":"m 83 500 b 607 -24 83 151 332 -24 b 1126 500 881 -24 1126 150 b 606 1025 1126 850 881 1025 b 83 500 346 1025 83 840 z m 597 989 b 1024 478 882 989 1024 728 b 618 8 1024 240 897 8 b 185 514 326 8 185 264 b 597 989 185 751 311 989 z "},"Ó":{"ha":1211,"x_min":0,"x_max":0,"o":"m 479 1071 l 483 1064 l 776 1165 l 738 1240 z m 83 500 b 607 -24 83 151 332 -24 b 1126 500 881 -24 1126 150 b 606 1025 1126 850 881 1025 b 83 500 346 1025 83 840 z m 597 989 b 1024 478 882 989 1024 728 b 618 8 1024 240 897 8 b 185 514 326 8 185 264 b 597 989 185 751 311 989 z "},"Ô":{"ha":1211,"x_min":0,"x_max":0,"o":"m 804 1118 l 611 1318 l 611 1317 l 610 1318 l 415 1118 l 419 1108 l 611 1218 l 800 1108 z m 83 500 b 607 -24 83 151 332 -24 b 1126 500 881 -24 1126 150 b 606 1025 1126 850 881 1025 b 83 500 346 1025 83 840 z m 597 989 b 1024 478 882 989 1024 728 b 618 8 1024 240 897 8 b 185 514 326 8 185 264 b 597 989 185 751 311 989 z "},"Ö":{"ha":1211,"x_min":0,"x_max":0,"o":"m 708 1121 b 708 1190 728 1139 728 1172 b 640 1190 689 1210 660 1208 b 625 1156 632 1182 625 1168 b 640 1121 625 1143 632 1129 b 708 1121 660 1103 689 1101 z m 543 1121 b 543 1190 563 1139 563 1172 b 475 1190 525 1208 493 1208 b 461 1156 465 1182 461 1168 b 475 1121 461 1143 465 1129 b 543 1121 493 1103 525 1103 z m 83 500 b 607 -24 83 151 332 -24 b 1126 500 881 -24 1126 150 b 606 1025 1126 850 881 1025 b 83 500 346 1025 83 840 z m 597 989 b 1024 478 882 989 1024 728 b 618 8 1024 240 897 8 b 185 514 326 8 185 264 b 597 989 185 751 311 989 z "},"Ò":{"ha":1211,"x_min":0,"x_max":0,"o":"m 779 1093 l 519 1261 l 481 1186 l 774 1085 z m 83 500 b 607 -24 83 151 332 -24 b 1126 500 881 -24 1126 150 b 606 1025 1126 850 881 1025 b 83 500 346 1025 83 840 z m 597 989 b 1024 478 882 989 1024 728 b 618 8 1024 240 897 8 b 185 514 326 8 185 264 b 597 989 185 751 311 989 z "},"Ő":{"ha":1211,"x_min":0,"x_max":0,"o":"m 383 1057 l 390 1047 l 693 1172 l 647 1249 z m 592 1086 l 596 1075 l 922 1113 l 900 1199 z m 83 500 b 607 -24 83 151 332 -24 b 1126 500 881 -24 1126 150 b 606 1025 1126 850 881 1025 b 83 500 346 1025 83 840 z m 597 989 b 1024 478 882 989 1024 728 b 618 8 1024 240 897 8 b 185 514 326 8 185 264 b 597 989 185 751 311 989 z "},"Ō":{"ha":1211,"x_min":0,"x_max":0,"o":"m 426 1165 l 392 1108 l 399 1100 l 467 1114 l 794 1114 l 858 1100 l 865 1108 l 831 1165 z m 83 500 b 607 -24 83 151 332 -24 b 1126 500 881 -24 1126 150 b 606 1025 1126 850 881 1025 b 83 500 346 1025 83 840 z m 597 989 b 1024 478 882 989 1024 728 b 618 8 1024 240 897 8 b 185 514 326 8 185 264 b 597 989 185 751 311 989 z "},"Ø":{"ha":1338,"x_min":0,"x_max":0,"o":"m 1289 1011 l 1281 1021 l 1093 867 b 686 1025 989 972 838 1025 b 136 500 411 1025 136 849 b 249 168 136 363 179 251 l 46 0 l 175 0 l 301 114 b 688 -24 406 22 546 -24 b 1235 500 961 -24 1235 150 b 1110 849 1235 647 1186 764 z m 250 515 b 679 986 250 753 393 986 b 1021 806 832 986 947 913 l 324 229 b 250 515 275 315 250 415 z m 1119 479 b 699 8 1119 242 978 8 b 363 171 551 8 439 74 l 1036 782 b 1119 479 1092 693 1119 586 z "},"Õ":{"ha":1211,"x_min":0,"x_max":0,"o":"m 829 1175 l 821 1175 b 585 1169 782 1115 710 1135 b 408 1090 506 1192 450 1167 l 417 1090 b 694 1090 485 1174 576 1078 b 829 1175 761 1097 806 1121 z m 83 500 b 607 -24 83 151 332 -24 b 1126 500 881 -24 1126 150 b 606 1025 1126 850 881 1025 b 83 500 346 1025 83 840 z m 597 989 b 1024 478 882 989 1024 728 b 618 8 1024 240 897 8 b 185 514 326 8 185 264 b 597 989 185 751 311 989 z "},"Œ":{"ha":1488,"x_min":0,"x_max":0,"o":"m 1415 226 b 985 36 1333 64 1201 36 b 925 100 938 36 925 50 l 925 579 l 1125 579 b 1336 507 1235 579 1290 567 l 1336 674 b 1125 601 1290 629 1235 601 l 925 601 l 925 978 l 1068 978 b 1344 815 1218 978 1263 958 l 1354 819 l 1300 1003 l 831 1003 b 607 1018 756 1003 701 1018 b 85 500 332 1018 85 849 b 608 -24 85 151 333 -24 b 847 0 694 -24 767 0 l 1358 0 l 1426 221 z m 185 515 b 600 986 185 753 314 986 b 828 801 774 986 828 965 l 828 118 b 619 8 828 28 725 8 b 185 515 328 8 185 265 z "},"P":{"ha":851,"x_min":0,"x_max":0,"o":"m 264 460 b 403 443 311 449 358 443 b 785 761 608 443 785 554 b 514 1011 785 892 678 1011 b 268 932 442 1011 358 989 l 268 1003 l 42 1003 l 42 996 b 167 811 164 996 167 986 l 167 124 b 136 0 167 67 160 33 l 289 0 b 264 124 265 33 264 71 z m 264 907 b 454 964 336 947 400 964 b 672 733 594 964 672 850 b 376 478 672 571 544 478 b 264 492 340 478 303 483 z "},"Þ":{"ha":1076,"x_min":0,"x_max":0,"o":"m 544 900 b 228 772 428 900 311 858 l 228 1006 b 249 1217 228 1117 231 1154 l 238 1221 l 114 1007 l 114 996 b 142 715 140 963 142 794 l 142 -118 b 50 -407 142 -206 90 -319 l 61 -412 b 228 -135 129 -287 164 -210 l 228 126 b 564 -11 315 35 440 -11 b 996 440 782 -11 996 140 b 544 900 996 750 768 900 z m 607 31 b 229 525 428 31 229 206 b 506 863 229 760 368 863 b 869 369 682 863 869 686 b 607 31 869 136 744 31 z "},"Q":{"ha":1239,"x_min":0,"x_max":0,"o":"m 2065 -112 b 1463 -326 1868 -258 1635 -326 b 803 4 1179 -326 967 -200 b 1154 500 1000 65 1154 231 b 619 1025 1154 850 894 1025 b 83 500 344 1025 83 849 b 621 -24 83 151 346 -24 b 668 -22 636 -24 653 -24 b 1439 -371 928 -293 1188 -371 b 2071 -125 1658 -371 1907 -268 z m 185 514 b 613 986 185 751 326 986 b 1053 481 897 986 1053 731 b 632 8 1053 243 911 8 b 185 514 340 8 185 264 z "},"R":{"ha":889,"x_min":0,"x_max":0,"o":"m 426 450 b 785 761 658 472 785 639 b 514 1011 785 892 678 1011 b 268 932 442 1011 358 989 l 268 1003 l 42 1003 l 42 996 b 167 811 164 996 167 986 l 167 124 b 136 0 167 67 160 33 l 289 0 b 264 124 265 33 264 71 l 264 460 b 633 178 382 438 489 419 b 1028 -204 751 -19 765 -125 l 1031 -194 b 426 443 756 -93 776 399 z m 264 907 b 454 964 336 947 400 964 b 672 733 594 964 672 850 b 382 472 672 571 538 472 b 264 492 343 472 304 479 z "},"Ŕ":{"ha":889,"x_min":0,"x_max":0,"o":"m 308 1071 l 313 1064 l 606 1165 l 567 1240 z m 426 450 b 785 761 658 472 785 639 b 514 1011 785 892 678 1011 b 268 932 442 1011 358 989 l 268 1003 l 42 1003 l 42 996 b 167 811 164 996 167 986 l 167 124 b 136 0 167 67 160 33 l 289 0 b 264 124 265 33 264 71 l 264 460 b 633 178 382 438 489 419 b 1028 -204 751 -19 765 -125 l 1031 -194 b 426 443 756 -93 776 399 z m 264 907 b 454 964 336 947 400 964 b 672 733 594 964 672 850 b 382 472 672 571 538 472 b 264 492 343 472 304 479 z "},"Ř":{"ha":833,"x_min":0,"x_max":0,"o":"m 626 1278 l 622 1288 l 433 1178 l 242 1288 l 238 1278 l 432 1078 l 433 1079 l 433 1078 z m 426 450 b 785 761 658 472 785 639 b 514 1011 785 892 678 1011 b 268 932 442 1011 358 989 l 268 1003 l 42 1003 l 42 996 b 167 811 164 996 167 986 l 167 124 b 136 0 167 67 160 33 l 289 0 b 264 124 265 33 264 71 l 264 460 b 633 178 382 438 489 419 b 1028 -204 751 -19 765 -125 l 1031 -194 b 426 443 756 -93 776 399 z m 264 907 b 454 964 336 947 400 964 b 672 733 594 964 672 850 b 382 472 672 571 538 472 b 264 492 343 472 304 479 z "},"Ŗ":{"ha":893,"x_min":0,"x_max":0,"o":"m 506 460 b 785 761 696 494 785 639 b 514 1011 785 892 678 1011 b 268 932 442 1011 358 989 l 268 1003 l 42 1003 l 42 996 b 167 811 164 996 167 986 l 167 8 b 194 -128 167 -43 194 -82 b 147 -221 194 -161 176 -192 l 154 -228 b 264 -24 229 -187 264 -97 l 264 -22 l 264 124 l 264 460 b 633 178 500 399 489 440 b 1028 -204 743 -22 765 -125 l 1031 -194 b 506 460 750 -92 774 414 z m 264 492 l 264 907 b 454 964 336 947 400 964 b 672 733 594 964 672 850 b 382 472 672 571 538 472 b 264 492 343 472 304 479 z "},"S":{"ha":847,"x_min":0,"x_max":0,"o":"m 79 175 b 439 -19 140 68 276 -19 b 776 264 651 -19 776 100 b 400 592 776 444 592 510 b 175 829 281 642 175 701 b 368 979 175 914 244 979 b 706 649 540 979 642 882 l 715 651 b 660 947 693 764 660 894 b 119 792 432 1067 119 1022 b 181 622 119 739 138 681 b 693 194 335 414 693 447 b 492 14 693 100 621 14 b 199 186 375 14 272 86 b 110 408 157 243 136 303 l 97 404 b 79 175 132 263 135 218 z "},"Ś":{"ha":847,"x_min":0,"x_max":0,"o":"m 292 1071 l 296 1064 l 589 1165 l 550 1240 z m 79 175 b 439 -19 140 68 276 -19 b 776 264 651 -19 776 100 b 400 592 776 444 592 510 b 175 829 281 642 175 701 b 368 979 175 914 244 979 b 706 649 540 979 642 882 l 715 651 b 660 947 693 764 660 894 b 119 792 432 1067 119 1022 b 181 622 119 739 138 681 b 693 194 335 414 693 447 b 492 14 693 100 621 14 b 199 186 375 14 272 86 b 110 408 157 243 136 303 l 97 404 b 79 175 132 263 135 218 z "},"Š":{"ha":833,"x_min":0,"x_max":0,"o":"m 619 1278 l 615 1288 l 426 1178 l 235 1288 l 231 1278 l 425 1078 l 426 1079 l 426 1078 z m 79 175 b 439 -19 140 68 276 -19 b 776 264 651 -19 776 100 b 400 592 776 444 592 510 b 175 829 281 642 175 701 b 368 979 175 914 244 979 b 706 649 540 979 642 882 l 715 651 b 660 947 693 764 660 894 b 119 792 432 1067 119 1022 b 181 622 119 739 138 681 b 693 194 335 414 693 447 b 492 14 693 100 621 14 b 199 186 375 14 272 86 b 110 408 157 243 136 303 l 97 404 b 79 175 132 263 135 218 z "},"Ş":{"ha":847,"x_min":0,"x_max":0,"o":"m 406 -18 b 439 -19 417 -19 428 -19 b 776 264 651 -19 776 100 b 400 592 776 444 592 510 b 175 829 281 642 175 701 b 368 979 175 914 244 979 b 706 649 540 979 642 882 l 715 651 b 660 947 693 764 660 894 b 119 792 432 1067 119 1022 b 181 622 119 739 138 681 b 693 194 335 414 693 447 b 492 14 693 100 621 14 b 199 186 375 14 272 86 b 110 408 157 243 136 303 l 97 404 b 79 175 132 263 135 218 b 363 -12 131 86 235 10 l 307 -126 l 319 -131 b 422 -90 350 -100 394 -90 b 476 -139 458 -90 476 -114 b 392 -208 476 -172 449 -208 b 318 -192 369 -208 346 -204 l 314 -200 b 417 -226 353 -218 388 -226 b 546 -117 500 -226 546 -167 b 468 -49 546 -81 521 -49 b 326 -112 422 -49 367 -67 l 326 -110 z "},"Ș":{"ha":847,"x_min":0,"x_max":0,"o":"m 776 264 b 400 592 776 444 592 510 b 175 829 281 642 175 701 b 368 979 175 914 244 979 b 706 649 540 979 642 882 l 715 651 b 660 947 693 764 660 894 b 119 792 432 1067 119 1022 b 181 622 119 739 138 681 b 693 194 335 414 693 447 b 492 14 693 100 621 14 b 199 186 375 14 272 86 b 110 408 157 243 136 303 l 97 404 b 79 175 132 263 135 218 b 376 -15 132 82 242 4 b 372 -40 374 -22 372 -31 b 414 -176 372 -92 414 -131 b 367 -269 414 -210 396 -240 l 374 -276 b 501 -72 449 -236 501 -146 b 490 -17 501 -53 497 -33 b 776 264 671 0 776 114 z "},"ẞ":{"ha":833,"x_min":0,"x_max":0,"o":"m 381 565 l 379 569 b 713 925 535 744 671 897 l 715 936 b 433 1026 615 997 519 1026 b 115 626 249 1026 115 889 l 115 -11 b 32 -279 115 -99 72 -192 l 43 -285 b 203 -26 111 -160 139 -94 l 203 779 b 381 964 203 907 278 964 b 571 914 439 964 504 946 b 301 513 515 860 415 664 l 317 503 b 351 538 324 510 340 528 b 672 211 569 525 672 400 b 514 4 672 93 610 4 b 351 174 425 4 371 68 b 258 276 301 174 246 197 l 249 276 b 242 217 243 257 242 236 b 503 -21 242 67 400 -21 b 764 257 625 -21 764 74 b 381 565 764 438 632 569 z "},"T":{"ha":951,"x_min":0,"x_max":0,"o":"m 858 1003 l 94 1003 b 58 792 93 958 88 881 l 68 788 b 354 978 128 940 185 978 l 428 978 l 428 124 b 401 0 428 61 422 38 l 551 0 b 525 124 531 38 525 61 l 525 978 l 599 978 b 883 788 764 978 829 940 l 893 792 b 858 1003 867 881 860 958 z "},"Ŧ":{"ha":953,"x_min":0,"x_max":0,"o":"m 858 1003 l 94 1003 b 58 792 93 958 88 881 l 68 788 b 354 978 128 940 185 978 l 428 978 l 428 538 l 257 538 l 222 481 l 229 472 l 297 486 l 428 486 l 428 124 b 401 0 428 61 422 38 l 551 0 b 525 124 531 38 525 61 l 525 486 l 625 486 l 689 472 l 696 481 l 661 538 l 525 538 l 525 978 l 599 978 b 883 788 764 978 829 940 l 893 792 b 858 1003 867 881 860 958 z "},"Ť":{"ha":951,"x_min":0,"x_max":0,"o":"m 683 1278 l 679 1288 l 490 1178 l 299 1288 l 294 1278 l 489 1078 l 490 1079 l 490 1078 z m 858 1003 l 94 1003 b 58 792 93 958 88 881 l 68 788 b 354 978 128 940 185 978 l 428 978 l 428 124 b 401 0 428 61 422 38 l 551 0 b 525 124 531 38 525 61 l 525 978 l 599 978 b 883 788 764 978 829 940 l 893 792 b 858 1003 867 881 860 958 z "},"Ţ":{"ha":951,"x_min":0,"x_max":0,"o":"m 858 1003 l 94 1003 b 58 792 93 958 88 881 l 68 788 b 354 978 128 940 185 978 l 428 978 l 428 124 b 403 3 428 63 422 39 l 401 0 l 340 -126 l 353 -131 b 456 -90 383 -100 428 -90 b 510 -139 492 -90 510 -114 b 425 -208 510 -172 482 -208 b 351 -192 403 -208 379 -204 l 347 -200 b 450 -226 386 -218 421 -226 b 579 -117 533 -226 579 -167 b 501 -49 579 -81 554 -49 b 360 -112 456 -49 400 -67 l 360 -110 l 456 0 l 551 0 b 525 124 531 38 525 61 l 525 978 l 599 978 b 883 788 764 978 829 940 l 893 792 b 858 1003 867 881 860 958 z "},"Ț":{"ha":954,"x_min":0,"x_max":0,"o":"m 860 1003 l 96 1003 l 60 792 l 69 788 l 89 835 b 356 978 129 932 213 978 l 429 978 l 429 28 b 457 -104 429 -24 457 -58 b 410 -197 457 -137 439 -168 l 417 -204 b 526 0 492 -164 526 -74 l 526 978 l 600 978 b 865 835 743 978 825 932 l 885 788 l 894 792 z "},"U":{"ha":940,"x_min":0,"x_max":0,"o":"m 649 1003 l 649 996 b 774 811 771 996 774 986 l 774 371 b 479 35 774 103 636 35 b 229 335 347 35 229 82 l 229 832 b 251 1003 229 932 233 968 l 107 1003 b 132 832 125 969 132 932 l 132 361 b 457 -25 132 50 292 -25 b 810 379 644 -25 810 65 l 810 851 b 836 1003 810 922 815 961 z "},"Ú":{"ha":940,"x_min":0,"x_max":0,"o":"m 332 1071 l 336 1064 l 629 1165 l 590 1240 z m 649 1003 l 649 996 b 774 811 771 996 774 986 l 774 371 b 479 35 774 103 636 35 b 229 335 347 35 229 82 l 229 832 b 251 1003 229 932 233 968 l 107 1003 b 132 832 125 969 132 932 l 132 361 b 457 -25 132 50 292 -25 b 810 379 644 -25 810 65 l 810 851 b 836 1003 810 922 815 961 z "},"Û":{"ha":940,"x_min":0,"x_max":0,"o":"m 669 1118 l 476 1318 l 476 1317 l 475 1318 l 281 1118 l 285 1108 l 476 1218 l 665 1108 z m 649 1003 l 649 996 b 774 811 771 996 774 986 l 774 371 b 479 35 774 103 636 35 b 229 335 347 35 229 82 l 229 832 b 251 1003 229 932 233 968 l 107 1003 b 132 832 125 969 132 932 l 132 361 b 457 -25 132 50 292 -25 b 810 379 644 -25 810 65 l 810 851 b 836 1003 810 922 815 961 z "},"Ü":{"ha":940,"x_min":0,"x_max":0,"o":"m 608 1121 b 608 1190 628 1139 628 1172 b 540 1190 589 1210 560 1208 b 525 1156 532 1182 525 1168 b 540 1121 525 1143 532 1129 b 608 1121 560 1103 589 1101 z m 443 1121 b 443 1190 463 1139 463 1172 b 375 1190 425 1208 393 1208 b 361 1156 365 1182 361 1168 b 375 1121 361 1143 365 1129 b 443 1121 393 1103 425 1103 z m 649 1003 l 649 996 b 774 811 771 996 774 986 l 774 371 b 479 35 774 103 636 35 b 229 335 347 35 229 82 l 229 832 b 251 1003 229 932 233 968 l 107 1003 b 132 832 125 969 132 932 l 132 361 b 457 -25 132 50 292 -25 b 810 379 644 -25 810 65 l 810 851 b 836 1003 810 922 815 961 z "},"Ù":{"ha":940,"x_min":0,"x_max":0,"o":"m 610 1079 l 350 1247 l 311 1172 l 604 1071 z m 649 1003 l 649 996 b 774 811 771 996 774 986 l 774 371 b 479 35 774 103 636 35 b 229 335 347 35 229 82 l 229 832 b 251 1003 229 932 233 968 l 107 1003 b 132 832 125 969 132 932 l 132 361 b 457 -25 132 50 292 -25 b 810 379 644 -25 810 65 l 810 851 b 836 1003 810 922 815 961 z "},"Ű":{"ha":940,"x_min":0,"x_max":0,"o":"m 250 1085 l 257 1075 l 560 1200 l 514 1276 z m 458 1114 l 463 1103 l 789 1140 l 767 1226 z m 649 1003 l 649 996 b 774 811 771 996 774 986 l 774 371 b 479 35 774 103 636 35 b 229 335 347 35 229 82 l 229 832 b 251 1003 229 932 233 968 l 107 1003 b 132 832 125 969 132 932 l 132 361 b 457 -25 132 50 292 -25 b 810 379 644 -25 810 65 l 810 851 b 836 1003 810 922 815 961 z "},"Ū":{"ha":940,"x_min":0,"x_max":0,"o":"m 328 1171 l 293 1114 l 300 1106 l 368 1119 l 696 1119 l 760 1106 l 767 1114 l 732 1171 z m 697 1003 l 697 996 b 822 811 819 996 822 986 l 822 371 b 528 35 822 103 685 35 b 278 335 396 35 278 82 l 278 832 b 300 1003 278 932 282 968 l 156 1003 b 181 832 174 969 181 932 l 181 361 b 506 -25 181 50 340 -25 b 858 379 693 -25 858 65 l 858 851 b 885 1003 858 922 864 961 z "},"Ų":{"ha":940,"x_min":0,"x_max":0,"o":"m 725 -61 b 732 92 701 -21 701 36 b 810 379 781 154 810 247 l 810 851 b 836 1003 810 922 815 961 l 649 1003 l 649 996 b 774 811 771 996 774 986 l 774 371 b 479 35 774 103 636 35 b 229 335 347 35 229 82 l 229 832 b 251 1003 229 932 233 968 l 107 1003 b 132 832 125 969 132 932 l 132 361 b 457 -25 132 50 292 -25 b 679 39 539 -25 617 -7 b 667 -122 644 -25 643 -85 b 868 -121 697 -172 772 -185 l 868 -111 b 725 -61 801 -131 750 -107 z "},"Ů":{"ha":939,"x_min":0,"x_max":0,"o":"m 721 983 b 658 1006 700 983 675 989 b 656 1115 631 1033 621 1079 b 708 1139 671 1131 689 1139 b 785 1058 750 1139 785 1100 b 771 1015 785 1043 781 1029 l 775 1011 b 808 1081 797 1033 808 1058 b 708 1157 808 1125 767 1161 b 604 1053 639 1153 604 1106 b 708 947 604 1000 639 953 b 760 953 724 946 747 947 b 772 865 768 929 771 906 l 772 753 l 772 371 b 478 35 772 103 635 35 b 228 335 346 35 228 82 l 228 851 b 250 1003 228 914 232 968 l 108 1003 b 131 851 126 968 131 914 l 131 361 b 456 -25 131 50 290 -25 b 808 379 643 -25 808 65 l 808 851 l 808 865 b 835 1003 810 928 815 964 b 721 983 807 1007 765 983 z "},"V":{"ha":1035,"x_min":0,"x_max":0,"o":"m 793 1003 b 854 836 860 974 883 913 l 644 297 b 585 140 611 213 593 176 b 550 264 581 176 564 231 l 290 882 b 256 1003 258 957 256 978 l 42 1003 l 42 996 b 188 868 108 989 150 958 l 561 -17 l 878 815 b 992 996 936 968 953 992 l 992 1003 z "},"W":{"ha":1443,"x_min":0,"x_max":0,"o":"m 1207 1003 b 1258 836 1293 986 1288 931 l 1051 185 l 747 1003 l 456 189 l 238 913 b 221 1003 229 942 221 974 l 42 1003 l 42 996 b 150 868 108 996 122 961 l 417 -14 l 713 819 l 1024 -17 l 1286 815 b 1400 996 1317 911 1356 986 l 1400 1003 z "},"Ẃ":{"ha":1443,"x_min":0,"x_max":0,"o":"m 906 1167 l 867 1242 l 608 1072 l 613 1065 z m 1207 1003 b 1258 836 1293 986 1288 931 l 1051 185 l 747 1003 l 456 189 l 238 913 b 221 1003 229 942 221 974 l 42 1003 l 42 996 b 150 868 108 996 122 961 l 417 -14 l 713 819 l 1024 -17 l 1286 815 b 1400 996 1317 911 1356 986 l 1400 1003 z "},"Ŵ":{"ha":1443,"x_min":0,"x_max":0,"o":"m 764 1106 l 953 996 l 957 1006 l 764 1206 l 764 1204 l 763 1206 l 568 1006 l 572 996 z m 1207 1003 b 1258 836 1293 986 1288 931 l 1051 185 l 747 1003 l 456 189 l 238 913 b 221 1003 229 942 221 974 l 42 1003 l 42 996 b 150 868 108 996 122 961 l 417 -14 l 713 819 l 1024 -17 l 1286 815 b 1400 996 1317 911 1356 986 l 1400 1003 z "},"Ẅ":{"ha":1443,"x_min":0,"x_max":0,"o":"m 881 1093 b 881 1163 900 1111 900 1144 b 813 1163 861 1182 832 1181 b 797 1128 804 1154 797 1140 b 813 1093 797 1115 804 1101 b 881 1093 832 1075 861 1074 z m 647 1093 b 715 1093 665 1075 697 1075 b 715 1163 735 1111 735 1144 b 647 1163 697 1181 665 1181 b 633 1128 638 1154 633 1140 b 647 1093 633 1115 638 1101 z m 1207 1003 b 1258 836 1293 986 1288 931 l 1051 185 l 747 1003 l 456 189 l 238 913 b 221 1003 229 942 221 974 l 42 1003 l 42 996 b 150 868 108 996 122 961 l 417 -14 l 713 819 l 1024 -17 l 1286 815 b 1400 996 1317 911 1356 986 l 1400 1003 z "},"Ẁ":{"ha":1443,"x_min":0,"x_max":0,"o":"m 908 1079 l 649 1247 l 610 1172 l 903 1071 z m 1207 1003 b 1258 836 1293 986 1288 931 l 1051 185 l 747 1003 l 456 189 l 238 913 b 221 1003 229 942 221 974 l 42 1003 l 42 996 b 150 868 108 996 122 961 l 417 -14 l 713 819 l 1024 -17 l 1286 815 b 1400 996 1317 911 1356 986 l 1400 1003 z "},"X":{"ha":981,"x_min":0,"x_max":0,"o":"m 810 139 l 558 549 l 754 854 b 929 996 818 954 854 990 l 929 1003 l 682 1003 l 682 996 b 694 831 744 967 740 901 l 535 589 l 322 935 b 289 1003 308 957 293 981 l 69 1003 l 69 996 b 232 886 168 986 175 979 l 471 501 l 207 111 b 44 7 158 40 121 13 l 44 0 l 274 0 b 276 126 246 35 243 75 l 494 464 l 718 104 b 936 -12 771 19 806 0 l 939 0 b 810 139 878 18 844 82 z "},"Y":{"ha":931,"x_min":0,"x_max":0,"o":"m 889 1003 l 693 1003 b 728 865 749 985 772 946 l 500 453 l 267 917 b 228 1003 243 964 231 985 l 42 1003 l 42 996 b 157 918 113 990 126 978 l 421 404 l 421 14 b 354 -181 421 -43 410 -85 l 361 -183 b 518 0 404 -119 458 0 l 518 406 b 794 910 667 681 747 825 b 889 996 835 981 857 996 z "},"Ý":{"ha":931,"x_min":0,"x_max":0,"o":"m 340 1071 l 344 1064 l 638 1165 l 599 1240 z m 889 1003 l 693 1003 b 728 865 749 985 772 946 l 500 453 l 267 917 b 228 1003 243 964 231 985 l 42 1003 l 42 996 b 157 918 113 990 126 978 l 421 404 l 421 14 b 354 -181 421 -43 410 -85 l 361 -183 b 518 0 404 -119 458 0 l 518 406 b 794 910 667 681 747 825 b 889 996 835 981 857 996 z "},"Ŷ":{"ha":931,"x_min":0,"x_max":0,"o":"m 663 1076 l 469 1276 l 469 1275 l 468 1276 l 274 1076 l 278 1067 l 469 1176 l 658 1067 z m 889 1003 l 693 1003 b 728 865 749 985 772 946 l 500 453 l 267 917 b 228 1003 243 964 231 985 l 42 1003 l 42 996 b 157 918 113 990 126 978 l 421 404 l 421 14 b 354 -181 421 -43 410 -85 l 361 -183 b 518 0 404 -119 458 0 l 518 406 b 794 910 667 681 747 825 b 889 996 835 981 857 996 z "},"Ÿ":{"ha":931,"x_min":0,"x_max":0,"o":"m 582 1121 b 582 1190 601 1139 601 1172 b 514 1190 563 1210 533 1208 b 499 1156 506 1182 499 1168 b 514 1121 499 1143 506 1129 b 582 1121 533 1103 563 1101 z m 417 1121 b 417 1190 436 1139 436 1172 b 349 1190 399 1208 367 1208 b 335 1156 339 1182 335 1168 b 349 1121 335 1143 339 1129 b 417 1121 367 1103 399 1103 z m 889 1003 l 693 1003 b 728 865 749 985 772 946 l 500 453 l 267 917 b 228 1003 243 964 231 985 l 42 1003 l 42 996 b 157 918 113 990 126 978 l 421 404 l 421 14 b 354 -181 421 -43 410 -85 l 361 -183 b 518 0 404 -119 458 0 l 518 406 b 794 910 667 681 747 825 b 889 996 835 981 857 996 z "},"Ỳ":{"ha":931,"x_min":0,"x_max":0,"o":"m 569 1079 l 310 1247 l 271 1172 l 564 1071 z m 889 1003 l 693 1003 b 728 865 749 985 772 946 l 500 453 l 267 917 b 228 1003 243 964 231 985 l 42 1003 l 42 996 b 157 918 113 990 126 978 l 421 404 l 421 14 b 354 -181 421 -43 410 -85 l 361 -183 b 518 0 404 -119 458 0 l 518 406 b 794 910 667 681 747 825 b 889 996 835 981 857 996 z "},"Z":{"ha":985,"x_min":0,"x_max":0,"o":"m 893 206 b 767 89 876 135 826 89 b 403 176 650 89 546 176 b 174 103 336 176 261 157 l 168 108 l 931 1017 l 918 1026 b 607 1003 860 1001 797 1003 b 201 1039 394 1003 283 997 l 101 733 l 113 732 b 381 914 182 897 211 914 l 761 914 l 43 -4 l 72 -24 b 397 119 165 74 251 119 b 750 -19 550 119 607 -1 b 871 8 782 -24 833 -19 b 914 263 871 83 914 197 l 903 265 b 893 206 901 247 897 224 z "},"Ź":{"ha":985,"x_min":0,"x_max":0,"o":"m 410 1071 l 414 1064 l 707 1165 l 668 1240 z m 893 206 b 767 89 876 135 826 89 b 403 176 650 89 546 176 b 174 103 336 176 261 157 l 168 108 l 931 1017 l 918 1026 b 607 1003 860 1001 797 1003 b 201 1039 394 1003 283 997 l 101 733 l 113 732 b 381 914 182 897 211 914 l 761 914 l 43 -4 l 72 -24 b 397 119 165 74 251 119 b 750 -19 550 119 607 -1 b 871 8 782 -24 833 -19 b 914 263 871 83 914 197 l 903 265 b 893 206 901 247 897 224 z "},"Ž":{"ha":985,"x_min":0,"x_max":0,"o":"m 751 1292 l 747 1301 l 558 1192 l 367 1301 l 363 1292 l 557 1092 l 558 1093 l 558 1092 z m 894 206 b 768 89 878 135 828 89 b 404 176 651 89 547 176 b 175 103 338 176 263 157 l 169 108 l 932 1017 l 919 1026 b 608 1003 861 1001 799 1003 b 203 1039 396 1003 285 997 l 103 733 l 114 732 b 382 914 183 897 213 914 l 763 914 l 44 -4 l 74 -24 b 399 119 167 74 253 119 b 751 -19 551 119 608 -1 b 872 8 783 -24 835 -19 b 915 263 872 83 915 197 l 904 265 b 894 206 903 247 899 224 z "},"Ż":{"ha":985,"x_min":0,"x_max":0,"o":"m 554 1093 b 618 1158 589 1093 618 1122 b 554 1222 618 1193 589 1222 b 489 1158 518 1222 489 1193 b 554 1093 489 1122 518 1093 z m 893 206 b 767 89 876 135 826 89 b 403 176 650 89 546 176 b 174 103 336 176 261 157 l 168 108 l 931 1017 l 918 1026 b 607 1003 860 1001 797 1003 b 201 1039 394 1003 283 997 l 101 733 l 113 732 b 381 914 182 897 211 914 l 761 914 l 43 -4 l 72 -24 b 397 119 165 74 251 119 b 750 -19 550 119 607 -1 b 871 8 782 -24 833 -19 b 914 263 871 83 914 197 l 903 265 b 893 206 901 247 897 224 z "},"a":{"ha":724,"x_min":0,"x_max":0,"o":"m 699 0 l 404 636 b 385 694 394 657 385 675 l 107 694 l 107 688 b 332 578 232 681 289 669 l 374 488 b 51 207 197 474 51 363 b 264 -17 51 97 129 -17 b 526 158 350 -17 468 47 l 579 46 b 586 0 586 31 592 13 z m 303 46 b 129 240 196 46 129 146 b 383 465 129 356 243 458 l 515 181 b 303 46 468 99 371 46 z "},"á":{"ha":724,"x_min":0,"x_max":0,"o":"m 132 781 l 138 772 l 406 883 l 365 951 z m 699 0 l 404 636 b 385 694 394 657 385 675 l 107 694 l 107 688 b 332 578 232 681 289 669 l 374 488 b 51 207 197 474 51 363 b 264 -17 51 97 129 -17 b 526 158 350 -17 468 47 l 579 46 b 586 0 586 31 592 13 z m 303 46 b 129 240 196 46 129 146 b 383 465 129 356 243 458 l 515 181 b 303 46 468 99 371 46 z "},"ă":{"ha":724,"x_min":0,"x_max":0,"o":"m 422 865 l 399 876 b 288 799 365 822 325 799 b 175 933 235 799 188 847 l 117 892 b 276 779 144 814 213 779 b 422 865 329 779 386 807 z m 699 0 l 404 636 b 385 694 394 657 385 675 l 107 694 l 107 688 b 332 578 232 681 289 669 l 374 488 b 51 207 197 474 51 363 b 264 -17 51 97 129 -17 b 526 158 350 -17 468 47 l 579 46 b 586 0 586 31 592 13 z m 303 46 b 129 240 196 46 129 146 b 383 465 129 356 243 458 l 515 181 b 303 46 468 99 371 46 z "},"â":{"ha":724,"x_min":0,"x_max":0,"o":"m 310 874 l 524 764 l 528 771 l 310 957 l 92 771 l 97 764 z m 699 0 l 404 636 b 385 694 394 657 385 675 l 107 694 l 107 688 b 332 578 232 681 289 669 l 374 488 b 51 207 197 474 51 363 b 264 -17 51 97 129 -17 b 526 158 350 -17 468 47 l 579 46 b 586 0 586 31 592 13 z m 303 46 b 129 240 196 46 129 146 b 383 465 129 356 243 458 l 515 181 b 303 46 468 99 371 46 z "},"ä":{"ha":724,"x_min":0,"x_max":0,"o":"m 343 790 b 343 860 363 808 363 842 b 275 860 324 879 294 878 b 260 825 267 851 260 838 b 275 790 260 813 267 799 b 343 790 294 772 324 771 z m 178 790 b 178 860 197 808 197 842 b 110 860 160 878 128 878 b 96 825 100 851 96 838 b 110 790 96 813 100 799 b 178 790 128 772 160 772 z m 699 0 l 404 636 b 385 694 394 657 385 675 l 107 694 l 107 688 b 332 578 232 681 289 669 l 374 488 b 51 207 197 474 51 363 b 264 -17 51 97 129 -17 b 526 158 350 -17 468 47 l 579 46 b 586 0 586 31 592 13 z m 303 46 b 129 240 196 46 129 146 b 383 465 129 356 243 458 l 515 181 b 303 46 468 99 371 46 z "},"à":{"ha":724,"x_min":0,"x_max":0,"o":"m 360 779 l 126 950 l 86 882 l 354 771 z m 699 0 l 404 636 b 385 694 394 657 385 675 l 107 694 l 107 688 b 332 578 232 681 289 669 l 374 488 b 51 207 197 474 51 363 b 264 -17 51 97 129 -17 b 526 158 350 -17 468 47 l 579 46 b 586 0 586 31 592 13 z m 303 46 b 129 240 196 46 129 146 b 383 465 129 356 243 458 l 515 181 b 303 46 468 99 371 46 z "},"ā":{"ha":724,"x_min":0,"x_max":0,"o":"m 131 856 l 96 806 l 103 797 l 171 811 l 471 811 l 535 797 l 542 806 l 507 856 z m 708 0 l 414 636 b 394 694 404 657 394 675 l 117 694 l 117 688 b 342 578 242 681 299 669 l 383 488 b 61 207 207 474 61 363 b 274 -17 61 97 139 -17 b 536 158 360 -17 478 47 l 589 46 b 596 0 596 31 601 13 z m 313 46 b 139 240 206 46 139 146 b 393 465 139 356 253 458 l 525 181 b 313 46 478 99 381 46 z "},"ą":{"ha":721,"x_min":0,"x_max":0,"o":"m 686 0 l 696 0 l 404 636 b 382 694 393 660 389 669 l 107 694 l 107 688 b 332 578 232 681 289 669 l 374 488 b 51 207 197 474 51 363 b 264 -17 51 97 129 -17 b 526 158 350 -17 468 47 l 579 46 l 586 29 b 449 -172 640 -94 576 -211 l 449 -182 b 601 29 638 -307 742 -136 l 603 36 b 686 0 640 31 668 18 z m 303 46 b 129 240 196 46 129 146 b 383 465 129 356 243 458 l 515 181 b 303 46 468 99 371 46 z "},"å":{"ha":724,"x_min":0,"x_max":0,"o":"m 247 710 l 283 710 b 294 806 267 738 265 775 b 400 806 325 838 374 839 b 403 697 422 778 431 729 b 417 661 406 685 410 671 b 451 740 440 700 451 711 b 347 847 451 793 415 847 b 243 743 278 847 243 796 b 247 710 243 732 244 721 z m 699 0 l 404 636 b 382 694 393 660 389 669 l 107 694 l 107 688 b 332 578 232 681 289 669 l 374 488 b 51 207 197 474 51 363 b 264 -17 51 97 129 -17 b 526 158 350 -17 468 47 l 579 46 b 586 0 586 31 592 13 z m 303 46 b 129 240 196 46 129 146 b 383 465 129 356 243 458 l 515 181 b 303 46 468 99 371 46 z "},"ã":{"ha":724,"x_min":0,"x_max":0,"o":"m 479 893 l 471 893 b 235 888 432 833 360 853 b 58 808 156 910 100 885 l 67 808 b 344 808 135 892 226 796 b 479 893 411 815 456 839 z m 699 0 l 404 636 b 385 694 394 657 385 675 l 107 694 l 107 688 b 332 578 232 681 289 669 l 374 488 b 51 207 197 474 51 363 b 264 -17 51 97 129 -17 b 526 158 350 -17 468 47 l 579 46 b 586 0 586 31 592 13 z m 303 46 b 129 240 196 46 129 146 b 383 465 129 356 243 458 l 515 181 b 303 46 468 99 371 46 z "},"æ":{"ha":1114,"x_min":0,"x_max":0,"o":"m 1053 199 b 789 51 1010 125 900 51 l 788 51 b 557 185 682 51 601 104 b 515 389 525 242 511 313 l 981 389 b 1053 371 1011 389 1033 382 l 1060 375 l 1033 419 l 883 419 b 1007 565 965 460 1007 515 b 767 708 1007 643 914 708 b 543 632 678 708 601 681 b 450 504 503 599 471 556 l 389 636 b 368 694 378 660 372 672 l 107 694 l 107 688 b 332 578 231 678 290 668 l 374 488 b 51 207 197 474 51 363 b 264 -17 51 97 129 -17 b 497 113 338 -17 433 29 b 753 -6 550 49 657 -6 b 1061 194 882 -6 996 75 z m 756 685 b 925 544 861 685 925 617 b 843 419 925 499 900 451 l 518 419 b 571 574 526 476 544 531 b 756 685 613 640 675 685 z m 303 46 b 129 240 196 46 129 146 b 383 465 129 356 243 458 l 421 385 b 418 339 419 369 418 354 b 481 133 418 258 442 189 b 303 46 429 79 357 46 z "},"b":{"ha":774,"x_min":0,"x_max":0,"o":"m 411 694 b 203 621 346 694 265 674 l 203 896 b 224 1107 203 1010 206 1044 l 213 1111 l 89 897 l 89 886 b 117 715 115 853 117 794 l 117 85 l 78 74 b 353 -19 157 14 258 -19 b 707 369 585 -19 707 154 b 411 694 707 538 611 694 z m 354 11 b 203 113 275 11 203 44 l 203 525 b 421 664 272 621 358 664 b 615 378 551 664 615 526 b 354 11 615 174 526 11 z "},"c":{"ha":749,"x_min":0,"x_max":0,"o":"m 710 194 l 701 201 b 449 50 651 106 558 50 b 154 396 272 50 154 189 b 379 676 154 572 238 676 b 646 500 514 676 621 601 l 656 501 l 632 658 b 407 701 574 683 489 701 b 63 340 211 701 63 546 b 404 -4 63 143 208 -4 b 710 194 538 -4 647 67 z "},"ć":{"ha":749,"x_min":0,"x_max":0,"o":"m 231 781 l 236 772 l 504 883 l 464 951 z m 710 194 l 701 201 b 449 50 651 106 558 50 b 154 396 272 50 154 189 b 379 676 154 572 238 676 b 646 500 514 676 621 601 l 656 501 l 632 658 b 407 701 574 683 489 701 b 63 340 211 701 63 546 b 404 -4 63 143 208 -4 b 710 194 538 -4 647 67 z "},"č":{"ha":749,"x_min":0,"x_max":0,"o":"m 588 974 l 583 983 l 401 878 l 218 983 l 214 974 l 400 782 l 401 783 l 401 782 z m 722 194 l 714 201 b 461 50 664 106 571 50 b 167 396 285 50 167 189 b 392 676 167 572 250 676 b 658 500 526 676 633 601 l 668 501 l 644 658 b 419 701 586 683 501 701 b 75 340 224 701 75 546 b 417 -4 75 143 221 -4 b 722 194 550 -4 660 67 z "},"ç":{"ha":749,"x_min":0,"x_max":0,"o":"m 383 -4 l 404 -4 b 710 194 538 -4 647 67 l 701 201 b 449 50 651 106 558 50 b 154 396 272 50 154 189 b 379 676 154 572 238 676 b 646 500 514 676 621 601 l 656 501 l 632 658 b 407 701 574 683 489 701 b 63 340 211 701 63 546 b 329 3 63 169 172 36 l 296 -114 l 308 -118 b 383 -78 339 -87 364 -78 b 438 -126 419 -78 438 -101 b 353 -196 438 -160 410 -196 b 279 -179 331 -196 307 -192 l 275 -187 b 378 -214 314 -206 349 -214 b 507 -104 461 -214 507 -154 b 429 -36 507 -68 482 -36 b 313 -99 394 -36 353 -53 l 313 -96 z "},"ċ":{"ha":749,"x_min":0,"x_max":0,"o":"m 388 783 b 443 840 418 783 443 808 b 388 896 443 871 418 896 b 331 840 356 896 331 871 b 388 783 331 808 356 783 z m 710 194 l 701 201 b 449 50 651 106 558 50 b 154 396 272 50 154 189 b 379 676 154 572 238 676 b 646 500 514 676 621 601 l 656 501 l 632 658 b 407 701 574 683 489 701 b 63 340 211 701 63 546 b 404 -4 63 143 208 -4 b 710 194 538 -4 647 67 z "},"d":{"ha":788,"x_min":0,"x_max":0,"o":"m 675 896 b 696 1107 675 1015 678 1047 l 685 1111 l 561 897 l 561 886 b 590 724 582 860 594 826 b 599 621 589 690 592 647 b 406 696 553 667 483 696 b 63 340 215 696 63 538 b 381 -14 63 140 201 -14 b 588 78 464 -14 544 19 b 583 0 588 36 586 11 l 690 0 b 675 71 678 29 675 43 z m 600 314 b 389 15 600 133 511 15 b 161 354 258 15 161 160 b 386 671 161 544 250 671 b 600 314 540 671 600 511 z "},"ð":{"ha":756,"x_min":0,"x_max":0,"o":"m 542 678 b 465 789 507 719 482 756 b 568 835 496 794 536 811 b 622 933 604 863 624 896 b 471 1015 619 997 543 1011 b 342 1083 407 1019 347 1021 l 333 1081 b 379 856 325 1014 351 918 b 319 868 363 861 339 865 b 142 740 247 878 169 826 l 153 736 b 238 813 172 783 203 806 b 418 785 310 826 346 788 b 515 654 443 747 475 704 b 567 581 536 628 554 604 l 564 578 b 349 694 506 658 428 694 b 64 381 206 694 64 572 b 399 -18 64 190 179 -18 b 688 329 557 -18 688 103 b 542 678 688 454 639 560 z m 438 847 b 410 931 421 876 410 906 b 508 990 410 965 435 990 b 606 936 571 990 604 968 b 510 851 607 901 560 867 b 438 847 485 843 458 842 z m 353 32 b 144 303 211 32 144 158 b 388 644 144 524 264 644 b 601 371 492 644 601 557 b 353 32 601 158 483 32 z "},"ď":{"ha":913,"x_min":0,"x_max":0,"o":"m 675 896 b 696 1107 675 1015 678 1047 l 685 1111 l 561 897 l 561 886 b 590 724 582 860 594 826 b 599 621 589 690 592 647 b 406 696 553 667 483 696 b 63 340 215 696 63 538 b 381 -14 63 140 201 -14 b 588 78 464 -14 544 19 b 583 0 588 36 586 11 l 690 0 b 675 71 678 29 675 43 z m 914 1051 l 822 1108 l 815 1108 l 749 1003 l 753 996 b 813 933 794 982 813 958 b 724 822 813 899 779 858 l 736 806 b 878 971 800 844 832 882 l 915 1044 z m 600 314 b 389 15 600 133 511 15 b 161 354 258 15 161 160 b 386 671 161 544 250 671 b 600 314 540 671 600 511 z "},"đ":{"ha":788,"x_min":0,"x_max":0,"o":"m 675 913 b 696 1107 675 1018 679 1050 l 685 1111 l 569 911 b 501 892 547 907 525 900 b 325 949 443 867 376 858 l 315 942 b 458 821 333 899 388 840 b 586 831 496 810 539 811 b 590 724 590 807 592 774 b 599 621 589 690 592 647 b 406 696 553 667 483 696 b 63 340 215 696 63 538 b 381 -14 63 140 201 -14 b 588 78 464 -14 544 19 b 583 0 588 36 586 11 l 690 0 b 675 71 678 29 675 43 l 675 861 b 804 799 724 867 771 854 l 815 803 b 675 913 788 861 739 900 z m 389 15 b 161 354 258 15 161 160 b 386 671 161 544 250 671 b 600 314 540 671 600 511 b 389 15 600 133 511 15 z "},"e":{"ha":743,"x_min":0,"x_max":0,"o":"m 615 411 l 643 432 b 388 703 642 603 542 703 b 64 354 203 703 64 554 b 107 168 64 281 78 219 b 400 -6 167 63 281 -6 b 708 194 529 -6 643 75 l 700 199 b 436 51 657 125 547 51 b 186 228 317 51 229 113 b 154 411 165 283 154 347 z m 157 439 b 372 676 171 579 258 676 b 540 439 478 676 540 589 z "},"é":{"ha":743,"x_min":0,"x_max":0,"o":"m 229 781 l 235 772 l 503 883 l 463 951 z m 615 411 l 643 432 b 388 703 642 603 542 703 b 64 354 203 703 64 554 b 107 168 64 281 78 219 b 400 -6 167 63 281 -6 b 708 194 529 -6 643 75 l 700 199 b 436 51 657 125 547 51 b 186 228 317 51 229 113 b 154 411 165 283 154 347 z m 157 439 b 372 676 171 579 258 676 b 540 439 478 676 540 589 z "},"ě":{"ha":743,"x_min":0,"x_max":0,"o":"m 524 974 l 519 983 l 338 878 l 154 983 l 150 974 l 336 782 l 338 783 l 338 782 z m 615 411 l 643 432 b 388 703 642 603 542 703 b 64 354 203 703 64 554 b 107 168 64 281 78 219 b 400 -6 167 63 281 -6 b 708 194 529 -6 643 75 l 700 199 b 436 51 657 125 547 51 b 186 228 317 51 229 113 b 154 411 165 283 154 347 z m 157 439 b 372 676 171 579 258 676 b 540 439 478 676 540 589 z "},"ê":{"ha":743,"x_min":0,"x_max":0,"o":"m 379 874 l 593 764 l 597 771 l 379 957 l 161 771 l 167 764 z m 700 199 b 436 51 657 125 547 51 b 186 228 317 51 229 113 b 154 411 165 283 154 347 l 615 411 l 643 432 b 388 703 642 603 542 703 b 64 354 203 703 64 554 b 107 168 64 281 78 219 b 400 -6 167 63 281 -6 b 708 194 529 -6 643 75 z m 372 676 b 540 439 478 676 540 589 l 157 439 b 372 676 171 579 258 676 z "},"ë":{"ha":743,"x_min":0,"x_max":0,"o":"m 492 790 b 492 860 511 808 511 842 b 424 860 472 879 443 878 b 408 825 415 851 408 838 b 424 790 408 813 415 799 b 492 790 443 772 472 771 z m 326 790 b 326 860 346 808 346 842 b 258 860 308 878 276 878 b 244 825 249 851 244 838 b 258 790 244 813 249 799 b 326 790 276 772 308 772 z m 615 411 l 643 432 b 388 703 642 603 542 703 b 64 354 203 703 64 554 b 107 168 64 281 78 219 b 400 -6 167 63 281 -6 b 708 194 529 -6 643 75 l 700 199 b 436 51 657 125 547 51 b 186 228 317 51 229 113 b 154 411 165 283 154 347 z m 157 439 b 372 676 171 579 258 676 b 540 439 478 676 540 589 z "},"ė":{"ha":743,"x_min":0,"x_max":0,"o":"m 381 783 b 436 840 411 783 436 808 b 381 896 436 871 411 896 b 324 840 349 896 324 871 b 381 783 324 808 349 783 z m 615 411 l 643 432 b 388 703 642 603 542 703 b 64 354 203 703 64 554 b 107 168 64 281 78 219 b 400 -6 167 63 281 -6 b 708 194 529 -6 643 75 l 700 199 b 436 51 657 125 547 51 b 186 228 317 51 229 113 b 154 411 165 283 154 347 z m 157 439 b 372 676 171 579 258 676 b 540 439 478 676 540 589 z "},"è":{"ha":743,"x_min":0,"x_max":0,"o":"m 535 779 l 301 950 l 261 882 l 529 771 z m 615 411 l 643 432 b 388 703 642 603 542 703 b 64 354 203 703 64 554 b 107 168 64 281 78 219 b 400 -6 167 63 281 -6 b 708 194 529 -6 643 75 l 700 199 b 436 51 657 125 547 51 b 186 228 317 51 229 113 b 154 411 165 283 154 347 z m 157 439 b 372 676 171 579 258 676 b 540 439 478 676 540 589 z "},"ē":{"ha":743,"x_min":0,"x_max":0,"o":"m 165 856 l 131 806 l 138 797 l 206 811 l 506 811 l 569 797 l 576 806 l 542 856 z m 615 411 l 643 432 b 388 703 642 603 542 703 b 64 354 203 703 64 554 b 107 168 64 281 78 219 b 400 -6 167 63 281 -6 b 708 194 529 -6 643 75 l 700 199 b 436 51 657 125 547 51 b 186 228 317 51 229 113 b 154 411 165 283 154 347 z m 157 439 b 372 676 171 579 258 676 b 540 439 478 676 540 589 z "},"ę":{"ha":743,"x_min":0,"x_max":0,"o":"m 629 -60 b 644 107 603 -17 606 47 b 708 194 669 132 690 163 l 700 199 b 436 51 657 125 547 51 b 186 228 317 51 229 113 b 154 411 165 283 154 347 l 615 411 l 643 432 b 388 703 642 603 542 703 b 64 354 203 703 64 554 b 107 168 64 281 78 219 b 400 -6 167 63 281 -6 b 597 64 472 -6 540 19 b 571 -121 549 -8 544 -78 b 772 -119 601 -171 676 -183 l 772 -110 b 629 -60 706 -129 654 -106 z m 372 676 b 540 439 478 676 540 589 l 157 439 b 372 676 171 579 258 676 z "},"f":{"ha":446,"x_min":0,"x_max":0,"o":"m 363 694 l 233 694 b 232 804 232 735 232 771 b 357 1065 232 956 243 1065 b 456 947 422 1065 456 1018 b 435 840 456 915 449 879 l 444 835 l 553 1026 b 392 1096 513 1071 447 1096 b 151 829 240 1096 160 1007 b 150 694 149 767 150 710 l 51 694 l 22 644 l 31 640 b 96 667 44 667 57 667 l 150 667 l 150 17 b 56 -272 150 -71 96 -185 l 67 -278 b 233 0 135 -153 169 -75 l 233 667 l 408 667 l 436 704 l 428 710 b 363 694 411 697 401 694 z "},"g":{"ha":725,"x_min":0,"x_max":0,"o":"m 708 694 b 582 743 656 696 615 711 l 464 682 b 364 701 433 694 399 701 b 82 435 228 701 82 607 b 253 217 82 322 160 246 l 58 157 b 203 39 72 64 151 43 l 36 -153 b 321 -283 92 -242 207 -283 b 619 -40 479 -283 619 -181 b 431 124 619 99 532 124 b 150 160 304 124 158 92 l 358 222 b 592 479 496 264 592 340 b 501 663 592 567 556 626 b 708 688 558 685 664 688 z m 369 261 b 150 481 274 278 150 353 b 315 660 150 600 231 660 b 508 442 410 660 508 588 b 369 261 508 344 450 294 z m 393 42 b 553 -78 511 54 553 -1 b 371 -239 553 -156 488 -239 b 158 -114 274 -239 172 -197 b 222 38 151 -72 185 -1 b 393 42 282 35 340 36 z "},"ğ":{"ha":725,"x_min":0,"x_max":0,"o":"m 379 779 b 525 865 432 779 489 807 l 501 876 b 390 799 468 822 428 799 b 278 933 338 799 290 847 l 219 892 b 379 779 247 814 315 779 z m 708 694 b 582 743 656 696 615 711 l 464 682 b 364 701 433 694 399 701 b 82 435 228 701 82 607 b 253 217 82 322 160 246 l 58 157 b 203 39 72 64 151 43 l 36 -153 b 321 -283 92 -242 207 -283 b 619 -40 479 -283 619 -181 b 431 124 619 99 532 124 b 150 160 304 124 158 92 l 358 222 b 592 479 496 264 592 340 b 501 663 592 567 556 626 b 708 688 558 685 664 688 z m 369 261 b 150 481 274 278 150 353 b 315 660 150 600 231 660 b 508 442 410 660 508 588 b 369 261 508 344 450 294 z m 393 42 b 553 -78 511 54 553 -1 b 371 -239 553 -156 488 -239 b 158 -114 274 -239 172 -197 b 222 38 151 -72 185 -1 b 393 42 282 35 340 36 z "},"ģ":{"ha":725,"x_min":0,"x_max":0,"o":"m 326 764 b 354 885 379 771 390 817 b 379 1015 325 939 340 975 l 374 1022 b 256 836 308 989 251 903 b 326 764 258 790 292 760 z m 708 694 b 582 743 656 696 615 711 l 464 682 b 364 701 433 694 399 701 b 82 435 228 701 82 607 b 253 217 82 322 160 246 l 58 157 b 203 39 72 64 151 43 l 36 -153 b 321 -283 92 -242 207 -283 b 619 -40 479 -283 619 -181 b 431 124 619 99 532 124 b 150 160 304 124 158 92 l 358 222 b 592 479 496 264 592 340 b 501 663 592 567 556 626 b 708 688 558 685 664 688 z m 369 261 b 150 481 274 278 150 353 b 315 660 150 600 231 660 b 508 442 410 660 508 588 b 369 261 508 344 450 294 z m 393 42 b 553 -78 511 54 553 -1 b 371 -239 553 -156 488 -239 b 158 -114 274 -239 172 -197 b 222 38 151 -72 185 -1 b 393 42 282 35 340 36 z "},"ġ":{"ha":725,"x_min":0,"x_max":0,"o":"m 325 783 b 381 840 356 783 381 808 b 325 896 381 871 356 896 b 268 840 293 896 268 871 b 325 783 268 808 293 783 z m 708 694 b 582 743 656 696 615 711 l 464 682 b 364 701 433 694 399 701 b 82 435 228 701 82 607 b 253 217 82 322 160 246 l 58 157 b 203 39 72 64 151 43 l 36 -153 b 321 -283 92 -242 207 -283 b 619 -40 479 -283 619 -181 b 431 124 619 99 532 124 b 150 160 304 124 158 92 l 358 222 b 592 479 496 264 592 340 b 501 663 592 567 556 626 b 708 688 558 685 664 688 z m 369 261 b 150 481 274 278 150 353 b 315 660 150 600 231 660 b 508 442 410 660 508 588 b 369 261 508 344 450 294 z m 393 42 b 553 -78 511 54 553 -1 b 371 -239 553 -156 488 -239 b 158 -114 274 -239 172 -197 b 222 38 151 -72 185 -1 b 393 42 282 35 340 36 z "},"h":{"ha":747,"x_min":0,"x_max":0,"o":"m 424 710 b 199 617 347 710 265 676 l 199 897 b 219 1107 199 1011 201 1044 l 208 1111 l 85 897 l 85 886 b 113 715 111 853 113 794 l 113 63 b 101 0 113 32 111 19 l 214 0 b 199 71 203 26 199 40 l 199 540 b 406 678 256 632 336 678 b 585 390 538 678 585 529 b 381 -97 585 251 540 63 l 393 -106 b 681 424 597 81 681 250 b 424 710 681 572 606 710 z "},"ħ":{"ha":739,"x_min":0,"x_max":0,"o":"m 415 710 b 200 621 342 710 265 679 l 200 878 l 421 878 l 450 928 l 442 932 b 376 906 428 906 415 906 l 200 906 b 221 1107 200 1013 203 1046 l 210 1111 l 90 906 l 42 906 l 13 856 l 21 851 b 86 878 35 878 47 878 l 92 878 b 114 715 113 843 114 789 l 114 63 b 103 0 114 32 113 19 l 215 0 b 200 71 204 26 200 40 l 200 539 b 397 664 257 621 331 664 b 572 390 529 664 572 529 b 372 -97 572 251 532 63 l 385 -106 b 672 424 589 81 672 250 b 415 710 672 572 597 710 z "},"i":{"ha":338,"x_min":0,"x_max":0,"o":"m 161 778 b 219 838 193 778 219 804 b 161 896 219 869 193 896 b 101 838 128 896 101 869 b 161 778 101 804 128 778 z m 108 0 l 242 0 b 221 83 225 24 221 53 l 221 593 b 231 694 221 626 222 663 l 17 694 l 17 685 b 131 549 97 681 131 653 l 131 83 b 108 0 131 43 119 21 z "},"ı":{"ha":338,"x_min":0,"x_max":0,"o":"m 108 0 l 242 0 b 221 83 225 24 221 53 l 221 592 b 231 694 221 625 222 663 l 17 694 l 17 685 b 131 549 97 681 131 653 l 131 83 b 108 0 131 43 119 21 z "},"í":{"ha":338,"x_min":0,"x_max":0,"o":"m 26 781 l 32 772 l 300 883 l 260 951 z m 108 0 l 242 0 b 221 83 225 24 221 53 l 221 592 b 231 694 221 625 222 663 l 17 694 l 17 685 b 131 549 97 681 131 653 l 131 83 b 108 0 131 43 119 21 z "},"î":{"ha":335,"x_min":0,"x_max":0,"o":"m 160 958 l -22 803 l -18 797 l 160 889 l 338 797 l 340 803 z m 222 592 b 232 694 222 625 224 663 l 18 694 l 18 685 b 132 549 99 681 132 653 l 132 83 b 110 0 132 43 121 21 l 243 0 b 222 83 226 24 222 53 z "},"ï":{"ha":333,"x_min":0,"x_max":0,"o":"m 253 790 b 253 860 272 808 272 842 b 185 860 233 879 204 878 b 169 825 176 851 169 838 b 185 790 169 813 176 799 b 253 790 204 772 233 771 z m 88 790 b 88 860 107 808 107 842 b 19 860 69 878 38 878 b 6 825 10 851 6 838 b 19 790 6 813 10 799 b 88 790 38 772 69 772 z m 108 0 l 242 0 b 221 83 225 24 221 53 l 221 592 b 231 694 221 625 222 663 l 17 694 l 17 685 b 131 549 97 681 131 653 l 131 83 b 108 0 131 43 119 21 z "},"ì":{"ha":338,"x_min":0,"x_max":0,"o":"m 224 779 l -10 950 l -50 882 l 218 771 z m 104 0 l 238 0 b 217 83 221 24 217 53 l 217 592 b 226 694 217 625 218 663 l 13 694 l 13 685 b 126 549 93 681 126 653 l 126 83 b 104 0 126 43 115 21 z "},"ī":{"ha":333,"x_min":0,"x_max":0,"o":"m -8 860 l -37 810 l -32 801 l 24 815 l 272 815 l 325 801 l 331 810 l 301 860 z m 108 0 l 242 0 b 221 83 225 24 221 53 l 221 592 b 231 694 221 625 222 663 l 17 694 l 17 685 b 131 549 97 681 131 653 l 131 83 b 108 0 131 43 119 21 z "},"į":{"ha":339,"x_min":0,"x_max":0,"o":"m 107 -164 b 121 0 82 -121 83 -58 l 242 0 b 221 83 225 24 221 53 l 221 592 b 231 694 221 625 222 663 l 17 694 l 17 685 b 131 549 97 681 131 653 l 131 83 b 110 1 131 44 121 22 b 49 -225 29 -85 17 -174 b 250 -224 79 -275 154 -287 l 250 -214 b 107 -164 183 -233 132 -210 z "},"j":{"ha":325,"x_min":0,"x_max":0,"o":"m 154 778 b 213 838 186 778 213 804 b 154 896 213 869 186 896 b 94 838 121 896 94 869 b 154 778 94 804 121 778 z m 31 686 b 122 576 96 683 122 661 l 122 164 b -36 -268 122 -37 75 -139 l -26 -278 b 213 32 101 -161 164 -4 l 213 589 b 221 694 213 624 214 660 l 31 694 z "},"k":{"ha":728,"x_min":0,"x_max":0,"o":"m 561 114 l 340 472 l 433 579 b 644 686 508 667 538 675 l 644 694 l 447 694 b 325 514 426 633 415 617 l 197 367 l 197 897 b 218 1107 197 1011 200 1044 l 207 1111 l 83 897 l 83 886 b 111 715 110 853 111 794 l 111 63 b 100 0 111 32 110 19 l 213 0 b 197 71 201 26 197 40 l 197 308 l 274 393 l 524 0 l 710 0 l 710 11 b 561 114 640 17 608 38 z "},"ķ":{"ha":728,"x_min":0,"x_max":0,"o":"m 561 114 l 340 472 l 433 579 b 644 686 508 667 538 675 l 644 694 l 447 694 b 325 514 426 633 415 617 l 197 367 l 197 897 b 218 1107 197 1011 200 1044 l 207 1111 l 83 897 l 83 886 b 111 715 110 853 111 794 l 111 63 b 108 24 111 46 111 35 b 93 -18 99 14 93 0 b 135 -154 93 -69 135 -108 b 88 -247 135 -187 117 -218 l 94 -254 b 222 -50 169 -214 222 -124 b 210 8 222 -29 218 -8 b 197 71 200 29 197 43 l 197 308 l 274 393 l 524 0 l 710 0 l 710 11 b 561 114 640 17 608 38 z "},"l":{"ha":311,"x_min":0,"x_max":0,"o":"m 199 71 l 199 896 b 219 1107 199 1010 201 1044 l 208 1111 l 85 897 l 85 886 b 113 715 111 853 113 794 l 113 63 b 101 0 113 32 111 19 l 214 0 b 199 71 203 26 199 40 z "},"ĺ":{"ha":311,"x_min":0,"x_max":0,"o":"m -4 1138 l 0 1131 l 293 1232 l 254 1307 z m 199 71 l 199 896 b 219 1107 199 1010 201 1044 l 208 1111 l 85 897 l 85 886 b 113 715 111 853 113 794 l 113 63 b 101 0 113 32 111 19 l 214 0 b 199 71 203 26 199 40 z "},"ľ":{"ha":486,"x_min":0,"x_max":0,"o":"m 225 71 l 225 896 b 246 1107 225 1010 228 1044 l 235 1111 l 111 897 l 111 886 b 139 715 138 853 139 794 l 139 63 b 128 0 139 32 138 19 l 240 0 b 225 71 229 26 225 40 z m 481 1051 l 389 1108 l 382 1108 l 315 1003 l 319 996 b 379 933 361 982 379 958 b 290 822 379 899 346 858 l 303 806 b 444 971 367 844 399 882 l 482 1044 z "},"ļ":{"ha":311,"x_min":0,"x_max":0,"o":"m 211 7 b 199 71 203 29 199 43 l 199 896 b 219 1107 199 1010 201 1044 l 208 1111 l 85 897 l 85 886 b 113 715 111 853 113 794 l 113 63 b 108 18 113 43 113 31 b 96 -21 100 8 96 -4 b 138 -157 96 -72 138 -111 b 90 -250 138 -190 119 -221 l 97 -257 b 225 -53 172 -217 225 -126 b 211 7 225 -31 221 -10 z "},"ł":{"ha":483,"x_min":0,"x_max":0,"o":"m 458 558 l 451 565 b 364 510 424 524 393 510 b 301 528 342 510 321 517 l 301 896 b 322 1107 301 1010 304 1044 l 311 1111 l 188 897 l 188 886 b 215 715 214 853 215 794 l 215 565 b 176 569 203 568 189 569 b 25 481 118 569 61 543 l 33 474 b 117 522 58 510 88 522 b 214 489 150 522 183 507 b 215 488 214 489 215 489 l 215 63 b 204 0 215 32 214 19 l 317 0 b 301 71 306 26 301 40 l 301 463 b 458 558 375 463 436 515 z "},"m":{"ha":1124,"x_min":0,"x_max":0,"o":"m 813 710 b 600 613 739 710 663 675 b 406 710 560 671 496 710 b 207 631 339 710 267 682 l 207 694 l 28 694 l 28 685 b 121 558 97 685 121 653 l 121 76 b 99 0 121 47 114 22 l 226 0 b 207 76 215 21 207 51 l 207 565 b 389 678 260 640 328 678 b 558 390 514 678 558 529 b 365 -97 558 251 517 63 l 376 -106 b 656 418 571 81 656 244 b 624 572 656 472 646 526 b 796 678 675 643 739 678 b 960 390 918 678 960 529 b 772 -97 960 251 921 63 l 783 -106 b 1057 418 974 81 1057 244 b 813 710 1057 567 981 710 z "},"n":{"ha":740,"x_min":0,"x_max":0,"o":"m 417 710 b 207 629 346 710 269 682 l 207 694 l 28 694 l 28 685 b 121 558 97 685 121 653 l 121 76 b 99 0 121 47 114 22 l 226 0 b 207 76 215 21 207 51 l 207 563 b 399 678 263 640 335 678 b 578 390 531 678 578 529 b 374 -97 578 251 533 63 l 386 -106 b 674 424 590 81 674 250 b 417 710 674 572 599 710 z "},"ń":{"ha":740,"x_min":0,"x_max":0,"o":"m 488 883 l 447 951 l 214 781 l 219 772 z m 417 710 b 207 629 346 710 269 682 l 207 694 l 28 694 l 28 685 b 121 558 97 685 121 653 l 121 76 b 99 0 121 47 114 22 l 226 0 b 207 76 215 21 207 51 l 207 563 b 399 678 263 640 335 678 b 578 390 531 678 578 529 b 374 -97 578 251 533 63 l 386 -106 b 674 424 590 81 674 250 b 417 710 674 572 599 710 z "},"ň":{"ha":740,"x_min":0,"x_max":0,"o":"m 357 797 l 357 796 l 543 988 l 539 997 l 357 892 l 174 997 l 169 988 l 356 796 z m 417 710 b 207 629 346 710 269 682 l 207 694 l 28 694 l 28 685 b 121 558 97 685 121 653 l 121 76 b 99 0 121 47 114 22 l 226 0 b 207 76 215 21 207 51 l 207 563 b 399 678 263 640 335 678 b 578 390 531 678 578 529 b 374 -97 578 251 533 63 l 386 -106 b 674 424 590 81 674 250 b 417 710 674 572 599 710 z "},"ņ":{"ha":739,"x_min":0,"x_max":0,"o":"m 672 424 b 415 710 672 572 597 710 b 206 629 344 710 268 682 l 206 694 l 26 694 l 26 685 b 119 558 96 685 119 653 l 119 76 b 97 0 119 47 113 22 l 225 0 b 206 76 214 21 206 51 l 206 563 b 397 678 261 640 333 678 b 576 390 529 678 576 529 b 425 -50 576 265 546 99 l 421 -54 l 415 -51 b 443 46 435 -18 444 29 b 372 118 439 88 417 126 b 329 64 342 113 328 93 b 376 -49 331 21 372 -8 b 343 -131 379 -76 365 -104 l 349 -136 b 435 -58 378 -114 407 -87 b 672 424 603 110 672 265 z "},"ŋ":{"ha":739,"x_min":0,"x_max":0,"o":"m 672 424 b 415 710 672 572 597 710 b 206 626 344 710 269 682 l 206 694 l 26 694 l 26 685 b 119 558 96 685 119 653 l 119 76 b 97 0 119 47 113 22 l 225 0 b 206 76 214 21 206 51 l 206 547 b 397 664 263 624 333 664 b 572 390 529 664 572 529 b 446 1 572 292 529 115 b 100 -265 375 -96 261 -194 l 107 -278 b 333 -222 247 -211 268 -207 b 400 -92 339 -187 343 -146 b 672 424 593 90 672 254 z "},"ñ":{"ha":740,"x_min":0,"x_max":0,"o":"m 449 808 b 583 893 515 815 560 839 l 575 893 b 339 888 536 833 464 853 b 163 808 260 910 204 885 l 171 808 b 449 808 239 892 331 796 z m 417 710 b 207 629 346 710 269 682 l 207 694 l 28 694 l 28 685 b 121 558 97 685 121 653 l 121 76 b 99 0 121 47 114 22 l 226 0 b 207 76 215 21 207 51 l 207 563 b 399 678 263 640 335 678 b 578 390 531 678 578 529 b 374 -97 578 251 533 63 l 386 -106 b 674 424 590 81 674 250 b 417 710 674 572 599 710 z "},"o":{"ha":813,"x_min":0,"x_max":0,"o":"m 63 351 b 415 -7 63 113 242 -7 b 750 343 583 -7 750 111 b 400 699 750 582 572 699 b 63 351 231 699 63 583 z m 651 289 b 449 25 651 108 556 25 b 157 408 311 25 157 161 b 369 669 157 590 264 669 b 651 289 507 669 651 533 z "},"ó":{"ha":813,"x_min":0,"x_max":0,"o":"m 261 781 l 267 772 l 535 883 l 494 951 z m 63 351 b 415 -7 63 113 242 -7 b 750 343 583 -7 750 111 b 400 699 750 582 572 699 b 63 351 231 699 63 583 z m 651 289 b 449 25 651 108 556 25 b 157 408 311 25 157 161 b 369 669 157 590 264 669 b 651 289 507 669 651 533 z "},"ô":{"ha":813,"x_min":0,"x_max":0,"o":"m 400 874 l 614 764 l 618 771 l 400 957 l 182 771 l 188 764 z m 400 699 b 63 351 231 699 63 583 b 415 -7 63 113 242 -7 b 750 343 583 -7 750 111 b 400 699 750 582 572 699 z m 449 25 b 157 408 311 25 157 161 b 369 669 157 590 264 669 b 651 289 507 669 651 533 b 449 25 651 108 556 25 z "},"ö":{"ha":813,"x_min":0,"x_max":0,"o":"m 508 790 b 508 860 528 808 528 842 b 440 860 489 879 460 878 b 425 825 432 851 425 838 b 440 790 425 813 432 799 b 508 790 460 772 489 771 z m 343 790 b 343 860 363 808 363 842 b 275 860 325 878 293 878 b 261 825 265 851 261 838 b 275 790 261 813 265 799 b 343 790 293 772 325 772 z m 63 351 b 415 -7 63 113 242 -7 b 750 343 583 -7 750 111 b 400 699 750 582 572 699 b 63 351 231 699 63 583 z m 651 289 b 449 25 651 108 556 25 b 157 408 311 25 157 161 b 369 669 157 590 264 669 b 651 289 507 669 651 533 z "},"ò":{"ha":813,"x_min":0,"x_max":0,"o":"m 525 779 l 292 950 l 251 882 l 519 771 z m 63 351 b 415 -7 63 113 242 -7 b 750 343 583 -7 750 111 b 400 699 750 582 572 699 b 63 351 231 699 63 583 z m 651 289 b 449 25 651 108 556 25 b 157 408 311 25 157 161 b 369 669 157 590 264 669 b 651 289 507 669 651 533 z "},"ő":{"ha":813,"x_min":0,"x_max":0,"o":"m 196 739 l 201 731 l 469 842 l 429 910 z m 381 765 l 383 756 l 672 789 l 653 865 z m 63 351 b 415 -7 63 113 242 -7 b 750 343 583 -7 750 111 b 400 699 750 582 572 699 b 63 351 231 699 63 583 z m 651 289 b 449 25 651 108 556 25 b 157 408 311 25 157 161 b 369 669 157 590 264 669 b 651 289 507 669 651 533 z "},"ō":{"ha":833,"x_min":0,"x_max":0,"o":"m 203 856 l 168 806 l 175 797 l 243 811 l 543 811 l 607 797 l 614 806 l 579 856 z m 63 351 b 415 -7 63 113 242 -7 b 750 343 583 -7 750 111 b 400 699 750 582 572 699 b 63 351 231 699 63 583 z m 651 289 b 449 25 651 108 556 25 b 157 408 311 25 157 161 b 369 669 157 590 264 669 b 651 289 507 669 651 533 z "},"ø":{"ha":824,"x_min":0,"x_max":0,"o":"m 650 607 l 740 721 l 731 721 l 639 618 b 407 699 574 672 489 699 b 69 351 238 699 69 583 b 169 93 69 239 110 153 l 86 0 l 169 0 l 214 57 b 422 -7 275 14 349 -7 b 757 343 590 -7 757 111 b 650 607 757 460 714 549 z m 164 408 b 376 669 164 590 271 669 b 582 554 451 669 528 629 l 231 161 b 164 408 190 224 164 307 z m 456 25 b 263 118 389 25 318 57 l 594 536 b 658 289 633 474 658 390 b 456 25 658 108 563 25 z "},"õ":{"ha":813,"x_min":0,"x_max":0,"o":"m 631 893 l 622 893 b 386 888 583 833 511 853 b 210 808 307 910 251 885 l 218 808 b 496 808 286 892 378 796 b 631 893 563 815 607 839 z m 63 351 b 415 -7 63 113 242 -7 b 750 343 583 -7 750 111 b 400 699 750 582 572 699 b 63 351 231 699 63 583 z m 651 289 b 449 25 651 108 556 25 b 157 408 311 25 157 161 b 369 669 157 590 264 669 b 651 289 507 669 651 533 z "},"œ":{"ha":1136,"x_min":0,"x_max":0,"o":"m 1072 142 b 867 31 1010 63 951 31 b 574 392 694 31 574 179 l 574 408 l 992 408 b 1064 390 1022 408 1044 401 l 1071 394 l 1044 439 l 892 439 b 1057 568 1006 472 1057 521 b 826 699 1057 646 932 699 b 592 642 746 699 667 681 b 401 699 535 679 468 699 b 64 340 232 699 64 581 b 411 -4 64 111 243 -4 b 614 64 485 -4 557 18 b 831 -4 672 21 746 -4 b 1081 135 939 -4 1015 38 z m 961 554 b 842 439 961 508 924 463 l 726 439 b 640 601 711 506 681 561 b 817 674 689 650 758 674 b 961 554 888 674 961 617 z m 438 29 b 156 392 304 29 156 158 b 358 667 156 579 251 667 b 621 439 461 667 574 586 l 496 439 b 482 340 488 406 482 381 b 581 93 482 240 518 154 b 438 29 543 50 490 29 z "},"p":{"ha":800,"x_min":0,"x_max":0,"o":"m 431 699 b 210 628 354 699 285 682 l 210 694 l 19 694 l 19 688 b 119 549 125 688 119 669 l 119 -210 b 25 -508 119 -297 65 -421 l 36 -514 b 210 -208 104 -389 146 -283 l 210 71 b 421 -7 281 11 358 -7 b 738 357 593 -7 738 144 b 431 699 738 540 600 699 z m 447 29 b 210 193 378 29 279 61 l 210 536 b 421 667 257 639 340 667 b 640 324 553 667 640 492 b 447 29 640 140 551 29 z "},"þ":{"ha":768,"x_min":0,"x_max":0,"o":"m 408 699 b 197 614 331 699 253 671 l 197 896 b 218 1107 197 1010 200 1044 l 207 1111 l 83 897 l 83 886 b 111 715 110 853 111 794 l 111 -118 b 19 -407 111 -206 60 -319 l 31 -412 b 197 -135 99 -287 133 -210 l 197 182 b 421 90 256 121 339 90 b 710 392 567 90 710 192 b 408 699 710 599 557 699 z m 450 118 b 199 449 331 118 199 235 b 382 674 199 606 290 674 b 625 344 500 674 625 556 b 450 118 625 189 542 118 z "},"q":{"ha":799,"x_min":0,"x_max":0,"o":"m 410 707 b 64 358 164 707 64 533 b 418 -7 64 176 169 -7 b 599 46 481 -7 532 11 l 599 -224 b 504 -508 599 -311 544 -421 l 515 -514 b 689 -236 583 -389 625 -311 l 689 547 l 726 547 l 729 558 b 410 707 633 635 524 707 z m 376 36 b 163 363 224 36 163 203 b 389 675 163 519 221 675 b 599 450 500 675 599 585 l 599 146 b 376 36 521 72 453 36 z "},"r":{"ha":601,"x_min":0,"x_max":0,"o":"m 208 90 l 203 546 b 292 594 253 588 274 594 b 436 525 331 594 368 525 b 578 640 493 525 544 578 l 569 644 b 501 599 551 615 532 599 b 364 700 429 599 363 660 l 203 581 l 203 694 l 22 694 l 22 688 b 119 549 93 681 119 669 l 119 89 b 104 0 119 43 119 28 l 222 0 b 208 90 211 32 208 42 z "},"ŕ":{"ha":601,"x_min":0,"x_max":0,"o":"m 153 781 l 158 772 l 426 883 l 386 951 z m 208 90 l 203 546 b 292 594 253 588 274 594 b 436 525 331 594 368 525 b 578 640 493 525 544 578 l 569 644 b 501 599 551 615 532 599 b 364 700 429 599 363 660 l 203 581 l 203 694 l 22 694 l 22 688 b 119 549 93 681 119 669 l 119 89 b 104 0 119 43 119 28 l 222 0 b 208 90 211 32 208 42 z "},"ř":{"ha":601,"x_min":0,"x_max":0,"o":"m 418 946 l 414 956 l 232 850 l 49 956 l 44 946 l 231 754 l 232 756 l 232 754 z m 208 90 l 203 546 b 292 594 253 588 274 594 b 436 525 331 594 368 525 b 578 640 493 525 544 578 l 569 644 b 501 599 551 615 532 599 b 364 700 429 599 363 660 l 203 581 l 203 694 l 22 694 l 22 688 b 119 549 93 681 119 669 l 119 89 b 104 0 119 43 119 28 l 222 0 b 208 90 211 32 208 42 z "},"ŗ":{"ha":601,"x_min":0,"x_max":0,"o":"m 569 644 b 501 599 551 615 532 599 b 364 700 429 599 363 660 l 203 581 l 203 694 l 22 694 l 22 688 b 119 549 93 681 119 669 l 119 89 b 114 22 119 57 119 39 b 101 -17 106 13 101 0 b 143 -153 101 -68 143 -107 b 96 -246 143 -186 125 -217 l 103 -253 b 231 -49 178 -212 231 -122 b 222 0 231 -32 228 -14 b 208 90 211 32 208 42 l 203 546 b 292 594 253 588 274 594 b 436 525 331 594 368 525 b 578 640 493 525 544 578 z "},"s":{"ha":628,"x_min":0,"x_max":0,"o":"m 547 558 b 306 699 511 647 415 699 b 94 522 175 699 94 614 b 311 314 94 424 168 361 b 488 151 410 282 488 236 b 333 11 488 79 418 11 b 185 97 269 11 219 44 b 124 318 146 156 125 236 l 113 318 b 57 146 113 249 89 188 b 321 -14 108 39 200 -14 b 571 179 476 -14 571 65 b 347 394 571 290 506 346 b 163 547 221 433 163 472 b 285 676 163 625 211 676 b 464 524 378 676 464 608 b 436 444 464 494 454 467 l 447 438 b 547 558 483 479 514 536 z "},"ś":{"ha":628,"x_min":0,"x_max":0,"o":"m 165 765 l 171 757 l 439 868 l 399 936 z m 547 558 b 306 699 511 647 415 699 b 94 522 175 699 94 614 b 311 314 94 424 168 361 b 488 151 410 282 488 236 b 333 11 488 79 418 11 b 185 97 269 11 219 44 b 124 318 146 156 125 236 l 113 318 b 57 146 113 249 89 188 b 321 -14 108 39 200 -14 b 571 179 476 -14 571 65 b 347 394 571 290 506 346 b 163 547 221 433 163 472 b 285 676 163 625 211 676 b 464 524 378 676 464 608 b 436 444 464 494 454 467 l 447 438 b 547 558 483 479 514 536 z "},"š":{"ha":628,"x_min":0,"x_max":0,"o":"m 461 951 l 457 961 l 275 856 l 92 961 l 88 951 l 274 760 l 275 761 l 275 760 z m 547 558 b 306 699 511 647 415 699 b 94 522 175 699 94 614 b 311 314 94 424 168 361 b 488 151 410 282 488 236 b 333 11 488 79 418 11 b 185 97 269 11 219 44 b 124 318 146 156 125 236 l 113 318 b 57 146 113 249 89 188 b 321 -14 108 39 200 -14 b 571 179 476 -14 571 65 b 347 394 571 290 506 346 b 163 547 221 433 163 472 b 285 676 163 625 211 676 b 464 524 378 676 464 608 b 436 444 464 494 454 467 l 447 438 b 547 558 483 479 514 536 z "},"ş":{"ha":628,"x_min":0,"x_max":0,"o":"m 288 -12 b 321 -14 299 -14 310 -14 b 571 179 476 -14 571 65 b 347 394 571 290 506 346 b 163 547 221 433 163 472 b 285 676 163 625 211 676 b 464 524 378 676 464 608 b 436 444 464 494 454 467 l 447 438 b 547 558 483 479 514 536 b 306 699 511 647 415 699 b 94 522 175 699 94 614 b 311 314 94 424 168 361 b 488 151 410 282 488 236 b 333 11 488 79 418 11 b 185 97 269 11 219 44 b 124 318 146 156 125 236 l 113 318 b 57 146 113 249 89 188 b 238 -4 96 65 158 15 l 207 -114 l 219 -118 b 294 -78 250 -87 275 -78 b 349 -126 331 -78 349 -101 b 264 -196 349 -160 321 -196 b 190 -179 242 -196 218 -192 l 186 -187 b 289 -214 225 -206 260 -214 b 418 -104 372 -214 418 -154 b 340 -36 418 -68 393 -36 b 224 -99 306 -36 264 -53 l 224 -96 z "},"ș":{"ha":592,"x_min":0,"x_max":0,"o":"m 533 181 b 325 394 533 292 475 347 b 158 547 211 431 158 472 b 269 676 158 625 203 676 b 431 524 353 676 431 608 b 406 444 431 494 422 467 l 413 439 l 508 557 b 288 699 476 646 388 699 b 94 521 169 699 94 613 b 289 303 94 422 160 346 b 453 164 406 264 446 228 b 313 11 461 88 394 11 b 124 318 193 11 128 158 l 114 318 b 60 144 114 249 89 186 b 210 -1 93 68 139 22 b 256 -40 251 -15 257 -12 b 289 -147 254 -81 289 -111 b 251 -222 289 -174 275 -199 l 257 -228 b 358 -65 317 -196 358 -122 b 393 -1 358 -11 365 -8 b 533 181 482 21 533 93 z "},"ß":{"ha":783,"x_min":0,"x_max":0,"o":"m 710 260 b 544 389 689 308 632 347 b 365 546 465 426 365 486 b 465 664 365 607 411 633 b 624 869 549 711 624 769 b 390 1026 624 950 538 1026 b 150 788 265 1026 150 947 l 150 694 l 51 694 l 22 644 l 31 640 b 96 667 44 667 57 667 l 150 667 l 150 17 b 56 -272 150 -71 96 -185 l 67 -278 b 233 0 135 -153 169 -75 l 232 781 b 372 996 232 917 275 994 b 532 860 486 997 532 925 b 444 704 532 806 500 744 b 317 525 385 661 317 638 b 506 304 317 429 386 363 b 640 153 590 263 636 221 b 525 11 644 76 611 11 b 385 214 460 11 388 79 l 376 214 b 321 71 376 161 346 101 b 503 -17 357 8 436 -17 b 725 185 632 -17 725 78 b 710 260 725 210 721 235 z "},"t":{"ha":400,"x_min":0,"x_max":0,"o":"m 385 713 b 301 694 367 700 340 694 l 236 694 l 236 740 b 269 999 236 854 244 924 l 258 1003 l 117 781 l 117 769 b 150 694 133 751 147 725 l 51 694 l 22 644 l 31 640 b 86 667 47 658 65 667 l 150 667 l 150 63 b 139 0 150 32 149 19 l 251 0 b 236 71 240 26 236 40 l 236 667 l 363 667 l 392 707 z "},"ŧ":{"ha":425,"x_min":0,"x_max":0,"o":"m 310 535 l 239 535 l 239 667 l 364 667 l 393 707 l 386 713 b 310 694 368 700 342 694 l 239 694 l 239 740 b 272 999 239 854 247 924 l 261 1003 l 119 781 l 119 769 b 153 694 136 751 150 725 l 68 694 l 39 644 l 47 640 b 89 667 60 664 72 667 l 153 667 l 153 535 l 68 535 l 39 485 l 47 481 b 89 507 60 504 72 507 l 153 507 l 153 63 b 142 0 153 32 151 19 l 254 0 b 239 71 243 26 239 40 l 239 507 l 364 507 l 393 547 l 386 553 b 310 535 368 540 342 535 z "},"ť":{"ha":536,"x_min":0,"x_max":0,"o":"m 522 1051 l 431 1108 l 424 1108 l 357 1003 l 361 996 b 421 933 403 982 421 958 b 332 822 421 899 388 858 l 344 806 b 486 971 408 844 440 882 l 524 1044 z m 400 713 b 317 694 382 700 356 694 l 251 694 l 251 740 b 285 999 251 854 260 924 l 274 1003 l 132 781 l 132 769 b 165 694 149 751 163 725 l 67 694 l 38 644 l 46 640 b 101 667 63 658 81 667 l 165 667 l 165 63 b 154 0 165 32 164 19 l 267 0 b 251 71 256 26 251 40 l 251 667 l 378 667 l 407 707 z "},"ţ":{"ha":383,"x_min":0,"x_max":0,"o":"m 371 713 b 288 694 353 700 326 694 l 222 694 l 222 740 b 256 999 222 854 231 924 l 244 1003 l 103 781 l 103 769 b 136 694 119 751 133 725 l 51 694 l 22 644 l 31 640 b 72 667 43 664 56 667 l 136 667 l 136 71 b 89 -128 136 35 136 -22 l 101 -132 b 176 -92 132 -101 157 -92 b 231 -140 213 -92 231 -115 b 146 -210 231 -174 203 -210 b 72 -193 124 -210 100 -206 l 68 -201 b 171 -228 107 -219 142 -228 b 300 -118 254 -228 300 -168 b 222 -50 300 -82 275 -50 b 106 -112 188 -50 146 -67 l 106 -110 b 238 0 129 -78 158 -7 b 222 71 226 26 222 40 l 222 667 l 349 667 l 378 707 z "},"ț":{"ha":400,"x_min":0,"x_max":0,"o":"m 363 667 l 392 707 l 385 713 b 301 694 367 700 340 694 l 236 694 l 236 740 b 269 999 236 854 244 924 l 258 1003 l 117 781 l 117 769 b 150 694 133 751 147 725 l 51 694 l 22 644 l 31 640 b 86 667 47 658 65 667 l 150 667 l 150 63 b 146 18 150 43 150 31 b 133 -21 138 8 133 -4 b 175 -157 133 -72 175 -111 b 128 -250 175 -190 157 -221 l 135 -257 b 263 -53 210 -217 263 -126 b 249 7 263 -31 258 -10 b 236 71 240 29 236 43 l 236 667 z "},"u":{"ha":785,"x_min":0,"x_max":0,"o":"m 574 0 l 688 0 b 669 76 674 22 669 49 l 669 606 b 678 694 669 636 671 669 l 490 694 l 490 685 b 583 558 560 685 583 653 l 583 179 b 379 31 539 78 449 31 b 204 276 247 31 204 138 l 204 694 l 24 694 l 24 685 b 117 558 93 685 117 653 l 117 271 b 360 -15 117 122 178 -15 b 583 114 446 -15 539 38 l 583 76 b 574 0 583 47 583 31 z "},"ú":{"ha":785,"x_min":0,"x_max":0,"o":"m 250 781 l 256 772 l 524 883 l 483 951 z m 574 0 l 688 0 b 669 76 674 22 669 49 l 669 606 b 678 694 669 636 671 669 l 490 694 l 490 685 b 583 558 560 685 583 653 l 583 179 b 379 31 539 78 449 31 b 204 276 247 31 204 138 l 204 694 l 24 694 l 24 685 b 117 558 93 685 117 653 l 117 271 b 360 -15 117 122 178 -15 b 583 114 446 -15 539 38 l 583 76 b 574 0 583 47 583 31 z "},"û":{"ha":785,"x_min":0,"x_max":0,"o":"m 383 901 l 597 792 l 601 799 l 383 985 l 165 799 l 171 792 z m 574 0 l 688 0 b 669 76 674 22 669 49 l 669 606 b 678 694 669 636 671 669 l 490 694 l 490 685 b 583 558 560 685 583 653 l 583 179 b 379 31 539 78 449 31 b 204 276 247 31 204 138 l 204 694 l 24 694 l 24 685 b 117 558 93 685 117 653 l 117 271 b 360 -15 117 122 178 -15 b 583 114 446 -15 539 38 l 583 76 b 574 0 583 47 583 31 z "},"ü":{"ha":785,"x_min":0,"x_max":0,"o":"m 483 790 b 483 860 503 808 503 842 b 415 860 464 879 435 878 b 400 825 407 851 400 838 b 415 790 400 813 407 799 b 483 790 435 772 464 771 z m 318 790 b 318 860 338 808 338 842 b 250 860 300 878 268 878 b 236 825 240 851 236 838 b 250 790 236 813 240 799 b 318 790 268 772 300 772 z m 574 0 l 688 0 b 669 76 674 22 669 49 l 669 606 b 678 694 669 636 671 669 l 490 694 l 490 685 b 583 558 560 685 583 653 l 583 179 b 379 31 539 78 449 31 b 204 276 247 31 204 138 l 204 694 l 24 694 l 24 685 b 117 558 93 685 117 653 l 117 271 b 360 -15 117 122 178 -15 b 583 114 446 -15 539 38 l 583 76 b 574 0 583 47 583 31 z "},"ù":{"ha":785,"x_min":0,"x_max":0,"o":"m 507 792 l 274 963 l 233 894 l 501 783 z m 574 0 l 688 0 b 669 76 674 22 669 49 l 669 606 b 678 694 669 636 671 669 l 490 694 l 490 685 b 583 558 560 685 583 653 l 583 179 b 379 31 539 78 449 31 b 204 276 247 31 204 138 l 204 694 l 24 694 l 24 685 b 117 558 93 685 117 653 l 117 271 b 360 -15 117 122 178 -15 b 583 114 446 -15 539 38 l 583 76 b 574 0 583 47 583 31 z "},"ű":{"ha":785,"x_min":0,"x_max":0,"o":"m 182 767 l 188 758 l 456 869 l 415 938 z m 367 793 l 369 783 l 658 817 l 639 893 z m 574 0 l 688 0 b 669 76 674 22 669 49 l 669 606 b 678 694 669 636 671 669 l 490 694 l 490 685 b 583 558 560 685 583 653 l 583 179 b 379 31 539 78 449 31 b 204 276 247 31 204 138 l 204 694 l 24 694 l 24 685 b 117 558 93 685 117 653 l 117 271 b 360 -15 117 122 178 -15 b 583 114 446 -15 539 38 l 583 76 b 574 0 583 47 583 31 z "},"ū":{"ha":785,"x_min":0,"x_max":0,"o":"m 182 856 l 147 806 l 154 797 l 222 811 l 522 811 l 586 797 l 593 806 l 558 856 z m 561 0 l 675 0 b 657 76 661 22 657 49 l 657 606 b 665 694 657 636 658 669 l 478 694 l 478 685 b 571 558 547 685 571 653 l 571 179 b 367 31 526 78 436 31 b 192 276 235 31 192 138 l 192 694 l 11 694 l 11 685 b 104 558 81 685 104 653 l 104 271 b 347 -15 104 122 165 -15 b 571 114 433 -15 526 38 l 571 76 b 561 0 571 47 571 31 z "},"ų":{"ha":782,"x_min":0,"x_max":0,"o":"m 582 -137 b 565 -62 569 -117 564 -90 l 565 -61 b 578 -8 567 -43 571 -26 b 614 15 586 6 599 15 b 686 -28 636 15 665 -6 l 694 -22 b 668 76 676 0 668 29 l 668 606 b 676 694 668 636 669 669 l 489 694 l 489 685 b 582 558 558 685 582 653 l 582 179 b 378 31 538 78 447 31 b 203 276 246 31 203 138 l 203 694 l 22 694 l 22 685 b 115 558 92 685 115 653 l 115 271 b 358 -15 115 122 176 -15 b 582 114 444 -15 538 38 l 582 76 b 563 3 582 50 574 26 b 524 -199 503 -75 494 -153 b 725 -197 554 -249 629 -261 l 725 -187 b 582 -137 658 -207 607 -183 z "},"ů":{"ha":785,"x_min":0,"x_max":0,"o":"m 549 654 b 515 675 542 665 531 674 b 428 688 488 660 453 664 b 426 799 400 714 392 763 b 532 799 457 831 503 829 b 543 701 558 771 563 732 l 579 701 b 583 733 582 713 583 722 b 479 840 583 786 547 840 b 375 736 410 840 375 789 b 479 631 375 683 410 631 b 549 654 508 631 532 640 z m 574 0 l 689 0 b 669 76 678 21 669 51 l 669 694 l 490 694 l 490 685 b 583 558 560 685 583 653 l 583 179 b 379 31 539 78 449 31 b 204 276 247 31 204 138 l 204 694 l 24 694 l 24 685 b 117 558 93 685 117 653 l 117 271 b 361 -15 117 122 179 -15 b 583 93 438 -15 531 17 l 583 76 b 574 0 583 47 583 31 z "},"v":{"ha":692,"x_min":0,"x_max":0,"o":"m 668 694 l 504 694 b 507 463 568 650 551 579 l 378 126 l 218 536 b 203 694 188 615 183 653 l 18 694 b 140 494 74 649 99 601 l 342 -24 l 351 -24 b 414 69 361 19 397 64 b 435 136 418 90 426 115 l 575 500 b 668 694 603 572 642 663 z "},"w":{"ha":1050,"x_min":0,"x_max":0,"o":"m 868 694 b 868 463 929 650 911 579 l 747 129 l 610 526 b 597 694 582 606 579 653 l 418 694 b 521 536 465 656 492 614 b 496 463 515 514 506 489 l 369 126 l 221 526 b 208 694 192 606 189 653 l 18 694 b 140 494 74 649 101 601 l 329 -24 l 339 -24 b 411 74 372 33 390 63 b 426 143 411 100 418 121 l 549 460 l 713 -24 l 722 -24 b 794 74 756 38 775 64 b 808 156 794 101 799 128 l 936 500 b 1025 694 963 572 1000 663 z "},"ẃ":{"ha":1050,"x_min":0,"x_max":0,"o":"m 649 883 l 608 951 l 375 781 l 381 772 z m 868 694 b 868 463 929 650 911 579 l 747 129 l 610 526 b 597 694 582 606 579 653 l 418 694 b 521 536 465 656 492 614 b 496 463 515 514 506 489 l 369 126 l 221 526 b 208 694 192 606 189 653 l 18 694 b 140 494 74 649 101 601 l 329 -24 l 339 -24 b 411 74 372 33 390 63 b 426 143 411 100 418 121 l 549 460 l 713 -24 l 722 -24 b 794 74 756 38 775 64 b 808 156 794 101 799 128 l 936 500 b 1025 694 963 572 1000 663 z "},"ŵ":{"ha":1050,"x_min":0,"x_max":0,"o":"m 525 874 l 739 764 l 743 771 l 525 957 l 307 771 l 313 764 z m 868 694 b 868 463 929 650 911 579 l 747 129 l 610 526 b 597 694 582 606 579 653 l 418 694 b 521 536 465 656 492 614 b 496 463 515 514 506 489 l 369 126 l 221 526 b 208 694 192 606 189 653 l 18 694 b 140 494 74 649 101 601 l 329 -24 l 339 -24 b 411 74 372 33 390 63 b 426 143 411 100 418 121 l 549 460 l 713 -24 l 722 -24 b 794 74 756 38 775 64 b 808 156 794 101 799 128 l 936 500 b 1025 694 963 572 1000 663 z "},"ẅ":{"ha":1050,"x_min":0,"x_max":0,"o":"m 638 790 b 638 860 657 808 657 842 b 569 860 618 879 589 878 b 554 825 561 851 554 838 b 569 790 554 813 561 799 b 638 790 589 772 618 771 z m 404 790 b 472 790 422 772 454 772 b 472 860 492 808 492 842 b 404 860 454 878 422 878 b 390 825 394 851 390 838 b 404 790 390 813 394 799 z m 868 694 b 868 463 929 650 911 579 l 747 129 l 610 526 b 597 694 582 606 579 653 l 418 694 b 521 536 465 656 492 614 b 496 463 515 514 506 489 l 369 126 l 221 526 b 208 694 192 606 189 653 l 18 694 b 140 494 74 649 101 601 l 329 -24 l 339 -24 b 411 74 372 33 390 63 b 426 143 411 100 418 121 l 549 460 l 713 -24 l 722 -24 b 794 74 756 38 775 64 b 808 156 794 101 799 128 l 936 500 b 1025 694 963 572 1000 663 z "},"ẁ":{"ha":1050,"x_min":0,"x_max":0,"o":"m 681 779 l 447 950 l 407 882 l 675 771 z m 868 694 b 868 463 929 650 911 579 l 747 129 l 610 526 b 597 694 582 606 579 653 l 418 694 b 521 536 465 656 492 614 b 496 463 515 514 506 489 l 369 126 l 221 526 b 208 694 192 606 189 653 l 18 694 b 140 494 74 649 101 601 l 329 -24 l 339 -24 b 411 74 372 33 390 63 b 426 143 411 100 418 121 l 549 460 l 713 -24 l 722 -24 b 794 74 756 38 775 64 b 808 156 794 101 799 128 l 936 500 b 1025 694 963 572 1000 663 z "},"x":{"ha":693,"x_min":0,"x_max":0,"o":"m 382 328 l 365 357 l 511 575 b 603 694 539 617 585 675 l 454 694 b 438 560 503 667 481 622 l 335 410 l 232 589 b 193 694 206 636 193 658 l 47 694 b 139 571 90 665 101 636 l 272 339 l 139 144 b 25 0 110 101 46 19 l 178 0 b 217 160 131 28 171 92 l 303 286 b 574 0 379 156 461 0 l 675 0 l 675 10 b 382 328 579 19 529 72 z "},"y":{"ha":626,"x_min":0,"x_max":0,"o":"m 460 694 b 463 504 515 656 501 606 l 347 199 l 215 525 b 169 694 188 593 169 635 l 17 694 b 124 521 65 654 86 614 l 293 101 l 232 -25 b -19 -303 167 -161 126 -246 l -17 -314 b 293 -135 128 -264 226 -149 b 379 151 297 -99 306 -42 l 522 525 b 603 694 546 588 579 667 z "},"ý":{"ha":626,"x_min":0,"x_max":0,"o":"m 151 781 l 157 772 l 425 883 l 385 951 z m 460 694 b 463 504 515 656 501 606 l 347 199 l 215 525 b 169 694 188 593 169 635 l 17 694 b 124 521 65 654 86 614 l 293 101 l 232 -25 b -19 -303 167 -161 126 -246 l -17 -314 b 293 -135 128 -264 226 -149 b 379 151 297 -99 306 -42 l 522 525 b 603 694 546 588 579 667 z "},"ŷ":{"ha":626,"x_min":0,"x_max":0,"o":"m 349 874 l 563 764 l 567 771 l 349 957 l 131 771 l 136 764 z m 460 694 b 463 504 515 656 501 606 l 347 199 l 215 525 b 169 694 188 593 169 635 l 17 694 b 124 521 65 654 86 614 l 293 101 l 232 -25 b -19 -303 167 -161 126 -246 l -17 -314 b 293 -135 128 -264 226 -149 b 379 151 297 -99 306 -42 l 522 525 b 603 694 546 588 579 667 z "},"ÿ":{"ha":626,"x_min":0,"x_max":0,"o":"m 436 790 b 436 860 456 808 456 842 b 368 860 417 879 388 878 b 353 825 360 851 353 838 b 368 790 353 813 360 799 b 436 790 388 772 417 771 z m 271 790 b 271 860 290 808 290 842 b 203 860 253 878 221 878 b 189 825 193 851 189 838 b 203 790 189 813 193 799 b 271 790 221 772 253 772 z m 460 694 b 463 504 515 656 501 606 l 347 199 l 215 525 b 169 694 188 593 169 635 l 17 694 b 124 521 65 654 86 614 l 293 101 l 232 -25 b -19 -303 167 -161 126 -246 l -17 -314 b 293 -135 128 -264 226 -149 b 379 151 297 -99 306 -42 l 522 525 b 603 694 546 588 579 667 z "},"ỳ":{"ha":626,"x_min":0,"x_max":0,"o":"m 443 779 l 210 950 l 169 882 l 438 771 z m 460 694 b 463 504 515 656 501 606 l 347 199 l 215 525 b 169 694 188 593 169 635 l 17 694 b 124 521 65 654 86 614 l 293 101 l 232 -25 b -19 -303 167 -161 126 -246 l -17 -314 b 293 -135 128 -264 226 -149 b 379 151 297 -99 306 -42 l 522 525 b 603 694 546 588 579 667 z "},"z":{"ha":742,"x_min":0,"x_max":0,"o":"m 699 683 l 696 694 l 296 694 b 178 738 208 694 190 707 l 168 736 l 78 546 l 88 542 b 256 619 139 601 179 619 l 540 619 l 26 15 l 40 0 b 442 97 169 151 347 175 l 575 -11 b 710 126 594 22 638 76 l 701 133 b 546 135 644 96 593 92 b 189 150 426 243 322 242 l 182 157 b 699 683 344 332 642 658 z "},"ź":{"ha":742,"x_min":0,"x_max":0,"o":"m 288 781 l 293 772 l 561 883 l 521 951 z m 699 683 l 696 694 l 296 694 b 178 738 208 694 190 707 l 168 736 l 78 546 l 88 542 b 256 619 139 601 179 619 l 540 619 l 26 15 l 40 0 b 442 97 169 151 347 175 l 575 -11 b 710 126 594 22 638 76 l 701 133 b 546 135 644 96 593 92 b 189 150 426 243 322 242 l 182 157 b 699 683 344 332 642 658 z "},"ž":{"ha":742,"x_min":0,"x_max":0,"o":"m 600 974 l 596 983 l 414 878 l 231 983 l 226 974 l 413 782 l 414 783 l 414 782 z m 707 683 l 704 694 l 304 694 b 186 738 217 694 199 707 l 176 736 l 86 546 l 96 542 b 264 619 147 601 188 619 l 549 619 l 35 15 l 49 0 b 450 97 178 151 356 175 l 583 -11 b 718 126 603 22 646 76 l 710 133 b 554 135 653 96 601 92 b 197 150 435 243 331 242 l 190 157 b 707 683 353 332 650 658 z "},"ż":{"ha":742,"x_min":0,"x_max":0,"o":"m 397 783 b 453 840 428 783 453 808 b 397 896 453 871 428 896 b 340 840 365 896 340 871 b 397 783 340 808 365 783 z m 699 683 l 696 694 l 296 694 b 178 738 208 694 190 707 l 168 736 l 78 546 l 88 542 b 256 619 139 601 179 619 l 540 619 l 26 15 l 40 0 b 442 97 169 151 347 175 l 575 -11 b 710 126 594 22 638 76 l 701 133 b 546 135 644 96 593 92 b 189 150 426 243 322 242 l 182 157 b 699 683 344 332 642 658 z "},"½":{"ha":956,"x_min":0,"x_max":0,"o":"m 75 -100 l 808 1111 l 715 1111 l 50 -100 z m 147 607 l 226 607 b 214 668 217 625 214 639 l 214 1057 b 219 1108 214 1074 215 1090 l 214 1111 b 143 1032 190 1075 151 1039 l 143 1025 b 161 964 158 1008 161 993 l 161 668 b 147 607 161 638 158 625 z m 881 99 l 875 100 b 774 42 857 53 819 42 l 638 42 b 872 371 763 146 872 257 b 742 503 872 458 811 503 b 575 357 674 503 600 458 b 625 275 593 357 617 319 l 631 275 b 739 490 618 415 683 490 b 818 360 781 490 818 450 b 561 0 818 243 699 114 l 750 0 b 836 -24 821 0 828 -3 b 881 99 849 7 872 61 z "},"¼":{"ha":974,"x_min":0,"x_max":0,"o":"m 74 -100 l 807 1111 l 714 1111 l 49 -100 z m 160 607 l 239 607 b 226 668 229 625 226 639 l 226 1057 b 232 1108 226 1074 228 1090 l 226 1111 b 156 1032 203 1075 164 1039 l 156 1025 b 174 964 171 1008 174 993 l 174 668 b 160 607 174 638 171 625 z m 894 193 l 851 193 l 851 501 l 749 501 l 749 497 b 806 404 806 497 806 496 l 806 193 l 621 193 b 732 407 700 290 732 351 b 590 515 732 479 685 515 l 590 510 b 681 399 649 510 681 469 b 590 179 681 328 649 250 l 806 179 l 806 7 b 769 -90 806 -19 799 -39 l 772 -92 b 851 0 839 6 833 0 l 851 179 l 861 179 b 901 171 882 179 890 176 l 906 172 z "},"¾":{"ha":1021,"x_min":0,"x_max":0,"o":"m 251 883 l 251 886 b 368 996 329 903 368 938 b 242 1113 368 1064 315 1113 b 82 988 176 1113 101 1078 b 132 906 101 988 124 949 l 138 906 b 239 1100 126 1032 181 1100 b 315 1010 283 1100 315 1063 b 204 883 315 949 272 900 l 204 879 b 340 725 282 872 340 806 b 250 619 340 660 306 619 b 107 808 169 619 111 697 l 100 807 b 68 697 103 729 99 713 b 232 600 104 633 161 600 b 400 735 322 600 396 658 b 251 883 404 808 338 874 z m 149 -100 l 882 1111 l 789 1111 l 124 -100 z m 942 193 l 899 193 l 899 501 l 796 501 l 796 497 b 853 404 853 497 853 496 l 853 193 l 668 193 b 779 407 747 290 779 351 b 638 515 779 479 732 515 l 638 510 b 728 399 696 510 728 469 b 638 179 728 328 696 250 l 853 179 l 853 7 b 817 -90 853 -19 846 -39 l 819 -92 b 899 0 886 6 881 0 l 899 179 l 908 179 b 949 171 929 179 938 176 l 953 172 z "},".":{"ha":438,"x_min":0,"x_max":0,"o":"m 274 8 b 274 117 304 38 304 88 b 164 117 243 147 194 147 b 142 63 150 103 142 83 b 164 8 142 42 150 22 b 274 8 194 -22 243 -22 z "},",":{"ha":393,"x_min":0,"x_max":0,"o":"m 139 -121 b 267 83 214 -81 267 10 b 192 174 267 132 244 179 b 138 115 156 169 138 149 b 179 -21 138 64 179 25 b 132 -114 179 -54 161 -85 z "},":":{"ha":410,"x_min":0,"x_max":0,"o":"m 260 442 b 260 551 290 472 290 521 b 150 551 229 581 181 582 b 128 496 135 536 128 517 b 150 442 128 475 136 456 b 260 442 181 411 229 411 z m 260 8 b 260 117 290 38 290 88 b 150 117 229 147 181 147 b 128 63 136 103 128 83 b 150 8 128 42 136 22 b 260 8 181 -22 229 -22 z "},";":{"ha":400,"x_min":0,"x_max":0,"o":"m 253 442 b 253 551 283 472 283 521 b 143 551 222 581 174 582 b 121 496 128 536 121 517 b 143 442 121 475 129 456 b 253 442 174 411 222 411 z m 278 61 b 194 149 274 117 236 150 b 133 74 156 147 126 111 b 161 -3 138 47 147 21 b 175 -32 167 -11 171 -21 b 138 -161 192 -82 179 -128 b 222 -87 172 -143 200 -118 b 278 61 268 -24 282 19 z "},"!":{"ha":376,"x_min":0,"x_max":0,"o":"m 172 201 l 200 201 l 244 835 b 261 925 246 864 249 897 l 126 925 b 143 836 138 900 142 864 z m 111 53 l 183 -18 l 254 53 l 183 124 z "},"¡":{"ha":378,"x_min":0,"x_max":0,"o":"m 111 872 l 183 801 l 254 872 l 183 943 z m 172 724 l 143 89 b 126 0 142 61 138 25 l 261 0 b 244 90 249 28 246 61 l 200 724 z "},"?":{"ha":631,"x_min":0,"x_max":0,"o":"m 551 832 b 360 1004 551 950 456 1004 b 69 760 222 1004 103 917 b 168 596 107 760 153 683 l 179 596 b 344 979 157 842 243 979 b 451 826 396 979 451 938 b 313 457 451 717 392 574 b 172 258 257 375 217 339 b 388 124 224 243 279 200 l 396 135 b 283 290 322 197 283 239 b 414 542 283 357 331 421 b 551 832 503 669 551 736 z m 276 -32 b 335 28 308 -32 335 -6 b 276 86 335 60 308 86 b 217 28 243 86 217 60 b 276 -32 217 -6 243 -32 z "},"·":{"ha":438,"x_min":0,"x_max":0,"o":"m 274 267 b 274 376 304 297 304 346 b 164 376 243 407 194 407 b 142 322 150 363 142 342 b 164 267 142 301 150 282 b 274 267 194 236 243 236 z "},"*":{"ha":497,"x_min":0,"x_max":0,"o":"m 201 986 b 222 929 206 974 213 954 b 246 871 233 903 242 883 b 189 894 233 876 215 885 b 131 917 164 904 144 913 b 144 892 133 910 138 901 b 158 867 151 881 156 872 b 131 819 151 856 142 840 b 189 843 143 824 163 831 b 246 864 214 854 233 861 b 222 807 240 850 232 831 b 200 750 211 781 204 761 b 225 764 206 751 214 757 b 250 776 235 771 243 775 b 274 763 254 775 261 769 b 297 750 283 757 290 753 b 274 810 293 763 286 782 b 253 867 264 833 257 853 b 308 842 263 863 281 854 b 367 819 332 832 351 824 b 353 844 364 826 360 835 b 339 869 346 854 342 863 b 353 892 340 874 346 881 b 367 917 360 901 364 910 b 308 894 354 913 335 904 b 250 871 285 885 265 878 b 275 928 253 876 261 896 b 297 986 285 951 293 971 b 272 971 292 983 283 978 b 247 957 263 964 254 960 b 201 986 229 969 214 979 z "}}}
